<svg width="1000" height="1000" xmlns="http://www.w3.org/2000/svg" version="1.1">


<!-- internal style sheet -->
<style type="text/css"><![CDATA[
 rect.background{fill:white}
 rect{fill:none; stroke:rgb(25,25,25); stroke-width:2}
 text{font-family:Helvetica; text-anchor:middle; fill:rgb(25,25,25)}
 line{stroke:rgb(25,25,25); stroke-width:4}
 path{fill:none; stroke:rgb(25,25,25); stroke-width:2}
 circle{fill:white; stroke:black; stroke-width:2}

 path.p0{fill:rgb(0,102,255); stroke:rgb(25,25,25); stroke-width:2}
 path.ps0{fill:rgb(0,77,191); stroke:rgb(20,20,20); stroke-width:2}
 rect.r0{fill:rgb(0,102,255); stroke:rgb(25,25,25); stroke-width:2}
 path.p1{fill:rgb(0,255,102); stroke:rgb(25,25,25); stroke-width:2}
 path.ps1{fill:rgb(0,191,77); stroke:rgb(20,20,20); stroke-width:2}
 rect.r1{fill:rgb(0,255,102); stroke:rgb(25,25,25); stroke-width:2}
 path.p2{fill:rgb(204,255,0); stroke:rgb(25,25,25); stroke-width:2}
 path.ps2{fill:rgb(153,191,0); stroke:rgb(20,20,20); stroke-width:2}
 rect.r2{fill:rgb(204,255,0); stroke:rgb(25,25,25); stroke-width:2}
 path.p3{fill:rgb(255,0,0); stroke:rgb(25,25,25); stroke-width:2}
 path.ps3{fill:rgb(191,0,0); stroke:rgb(20,20,20); stroke-width:2}
 rect.r3{fill:rgb(255,0,0); stroke:rgb(25,25,25); stroke-width:2}
]]></style>

 <rect class="background" width="1000" height="1000"/>
  <!-- cells -->
  <path class="p3" d="M 920 500 L 918 459 L 862 464 L 864 500 L 920 500"/>
  <line x1="920" y1="500" x2="918" y2="459"/>
  <path class="p3" d="M 918 459 L 912 418 L 857 428 L 862 464 L 918 459"/>
  <line x1="918" y1="459" x2="912" y2="418"/>
  <path class="p3" d="M 864 500 L 862 464 L 806 468 L 808 500 L 864 500"/>
  <path class="p3" d="M 862 464 L 857 428 L 802 437 L 806 468 L 862 464"/>
  <path class="p3" d="M 912 418 L 902 378 L 848 392 L 857 428 L 912 418"/>
  <line x1="912" y1="418" x2="902" y2="378"/>
  <path class="p3" d="M 902 378 L 888 339 L 836 358 L 848 392 L 902 378"/>
  <line x1="902" y1="378" x2="888" y2="339"/>
  <path class="p3" d="M 857 428 L 848 392 L 794 407 L 802 437 L 857 428"/>
  <path class="p3" d="M 848 392 L 836 358 L 783 377 L 794 407 L 848 392"/>
  <path class="p3" d="M 808 500 L 806 468 L 751 473 L 752 500 L 808 500"/>
  <path class="p3" d="M 806 468 L 802 437 L 747 447 L 751 473 L 806 468"/>
  <path class="p3" d="M 752 500 L 751 473 L 695 478 L 696 500 L 752 500"/>
  <path class="p3" d="M 751 473 L 747 447 L 692 456 L 695 478 L 751 473"/>
  <path class="p3" d="M 802 437 L 794 407 L 740 421 L 747 447 L 802 437"/>
  <path class="p3" d="M 794 407 L 783 377 L 731 396 L 740 421 L 794 407"/>
  <path class="p3" d="M 747 447 L 740 421 L 686 435 L 692 456 L 747 447"/>
  <path class="p3" d="M 740 421 L 731 396 L 679 414 L 686 435 L 740 421"/>
  <path class="p3" d="M 888 339 L 870 302 L 820 325 L 836 358 L 888 339"/>
  <line x1="888" y1="339" x2="870" y2="302"/>
  <path class="p3" d="M 870 302 L 849 267 L 801 294 L 820 325 L 870 302"/>
  <line x1="870" y1="302" x2="849" y2="267"/>
  <path class="p3" d="M 836 358 L 820 325 L 770 348 L 783 377 L 836 358"/>
  <path class="p3" d="M 820 325 L 801 294 L 754 321 L 770 348 L 820 325"/>
  <path class="p3" d="M 849 267 L 825 234 L 780 265 L 801 294 L 849 267"/>
  <line x1="849" y1="267" x2="825" y2="234"/>
  <path class="p3" d="M 825 234 L 797 203 L 755 238 L 780 265 L 825 234"/>
  <line x1="825" y1="234" x2="797" y2="203"/>
  <path class="p3" d="M 801 294 L 780 265 L 735 296 L 754 321 L 801 294"/>
  <path class="p3" d="M 780 265 L 755 238 L 714 272 L 735 296 L 780 265"/>
  <path class="p3" d="M 783 377 L 770 348 L 720 371 L 731 396 L 783 377"/>
  <path class="p3" d="M 770 348 L 754 321 L 706 348 L 720 371 L 770 348"/>
  <path class="p3" d="M 731 396 L 720 371 L 670 394 L 679 414 L 731 396"/>
  <path class="p3" d="M 720 371 L 706 348 L 658 376 L 670 394 L 720 371"/>
  <path class="p3" d="M 754 321 L 735 296 L 690 327 L 706 348 L 754 321"/>
  <path class="p3" d="M 735 296 L 714 272 L 672 307 L 690 327 L 735 296"/>
  <path class="p3" d="M 706 348 L 690 327 L 645 358 L 658 376 L 706 348"/>
  <path class="p3" d="M 690 327 L 672 307 L 630 342 L 645 358 L 690 327"/>
  <path class="p3" d="M 696 500 L 695 478 L 639 483 L 640 500 L 696 500"/>
  <path class="p3" d="M 695 478 L 692 456 L 637 466 L 639 483 L 695 478"/>
  <path class="p3" d="M 640 500 L 639 483 L 583 488 L 584 500 L 640 500"/>
  <path class="p3" d="M 639 483 L 637 466 L 582 475 L 583 488 L 639 483"/>
  <path class="p3" d="M 692 456 L 686 435 L 632 449 L 637 466 L 692 456"/>
  <path class="p3" d="M 686 435 L 679 414 L 627 433 L 632 449 L 686 435"/>
  <path class="p3" d="M 637 466 L 632 449 L 579 463 L 582 475 L 637 466"/>
  <path class="p3" d="M 632 449 L 627 433 L 574 452 L 579 463 L 632 449"/>
  <path class="p3" d="M 584 500 L 583 488 L 528 492 L 528 500 L 584 500"/>
  <path class="p3" d="M 583 488 L 582 475 L 527 485 L 528 492 L 583 488"/>
  <path class="p3" d="M 528 500 L 528 492 L 472 497 L 472 500 L 528 500"/>
  <line x1="472" y1="500" x2="472" y2="497"/>
  <path class="p3" d="M 528 492 L 527 485 L 471 495 L 472 497 L 528 492"/>
  <line x1="472" y1="497" x2="471" y2="495"/>
  <path class="p3" d="M 582 475 L 579 463 L 525 478 L 527 485 L 582 475"/>
  <path class="p3" d="M 579 463 L 574 452 L 522 471 L 525 478 L 579 463"/>
  <path class="p3" d="M 527 485 L 525 478 L 471 492 L 471 495 L 527 485"/>
  <line x1="471" y1="495" x2="471" y2="492"/>
  <path class="p3" d="M 525 478 L 522 471 L 470 489 L 471 492 L 525 478"/>
  <line x1="471" y1="492" x2="470" y2="489"/>
  <path class="p3" d="M 679 414 L 670 394 L 619 418 L 627 433 L 679 414"/>
  <path class="p3" d="M 670 394 L 658 376 L 611 403 L 619 418 L 670 394"/>
  <path class="p3" d="M 627 433 L 619 418 L 569 441 L 574 452 L 627 433"/>
  <path class="p3" d="M 619 418 L 611 403 L 563 430 L 569 441 L 619 418"/>
  <path class="p3" d="M 658 376 L 645 358 L 600 389 L 611 403 L 658 376"/>
  <path class="p3" d="M 645 358 L 630 342 L 589 376 L 600 389 L 645 358"/>
  <path class="p3" d="M 611 403 L 600 389 L 555 420 L 563 430 L 611 403"/>
  <path class="p3" d="M 600 389 L 589 376 L 547 411 L 555 420 L 600 389"/>
  <path class="p3" d="M 574 452 L 569 441 L 519 464 L 522 471 L 574 452"/>
  <path class="p3" d="M 569 441 L 563 430 L 515 457 L 519 464 L 569 441"/>
  <path class="p3" d="M 522 471 L 519 464 L 469 487 L 470 489 L 522 471"/>
  <line x1="470" y1="489" x2="469" y2="487"/>
  <path class="p3" d="M 519 464 L 515 457 L 467 484 L 469 487 L 519 464"/>
  <line x1="469" y1="487" x2="467" y2="484"/>
  <path class="p3" d="M 563 430 L 555 420 L 511 451 L 515 457 L 563 430"/>
  <path class="p3" d="M 555 420 L 547 411 L 505 446 L 511 451 L 555 420"/>
  <path class="p3" d="M 515 457 L 511 451 L 466 482 L 467 484 L 515 457"/>
  <line x1="467" y1="484" x2="466" y2="482"/>
  <path class="p3" d="M 511 451 L 505 446 L 464 480 L 466 482 L 511 451"/>
  <line x1="466" y1="482" x2="464" y2="480"/>
  <path class="p3" d="M 797 203 L 766 175 L 728 213 L 755 238 L 797 203"/>
  <line x1="797" y1="203" x2="766" y2="175"/>
  <path class="p3" d="M 766 175 L 733 151 L 699 192 L 728 213 L 766 175"/>
  <line x1="766" y1="175" x2="733" y2="151"/>
  <path class="p3" d="M 755 238 L 728 213 L 690 251 L 714 272 L 755 238"/>
  <path class="p3" d="M 728 213 L 699 192 L 665 232 L 690 251 L 728 213"/>
  <path class="p3" d="M 733 151 L 698 130 L 668 173 L 699 192 L 733 151"/>
  <line x1="733" y1="151" x2="698" y2="130"/>
  <path class="p3" d="M 698 130 L 661 112 L 635 157 L 668 173 L 698 130"/>
  <line x1="698" y1="130" x2="661" y2="112"/>
  <path class="p3" d="M 699 192 L 668 173 L 638 216 L 665 232 L 699 192"/>
  <path class="p3" d="M 668 173 L 635 157 L 609 203 L 638 216 L 668 173"/>
  <path class="p3" d="M 714 272 L 690 251 L 652 289 L 672 307 L 714 272"/>
  <path class="p3" d="M 690 251 L 665 232 L 631 273 L 652 289 L 690 251"/>
  <path class="p3" d="M 672 307 L 652 289 L 614 327 L 630 342 L 672 307"/>
  <path class="p3" d="M 652 289 L 631 273 L 596 314 L 614 327 L 652 289"/>
  <path class="p3" d="M 665 232 L 638 216 L 608 259 L 631 273 L 665 232"/>
  <path class="p3" d="M 638 216 L 609 203 L 583 248 L 608 259 L 638 216"/>
  <path class="p3" d="M 631 273 L 608 259 L 578 302 L 596 314 L 631 273"/>
  <path class="p3" d="M 608 259 L 583 248 L 558 293 L 578 302 L 608 259"/>
  <path class="p3" d="M 661 112 L 622 98 L 601 145 L 635 157 L 661 112"/>
  <line x1="661" y1="112" x2="622" y2="98"/>
  <path class="p3" d="M 622 98 L 582 88 L 565 136 L 601 145 L 622 98"/>
  <line x1="622" y1="98" x2="582" y2="88"/>
  <path class="p3" d="M 635 157 L 601 145 L 579 192 L 609 203 L 635 157"/>
  <path class="p3" d="M 601 145 L 565 136 L 549 184 L 579 192 L 601 145"/>
  <path class="p3" d="M 582 88 L 541 82 L 529 131 L 565 136 L 582 88"/>
  <line x1="582" y1="88" x2="541" y2="82"/>
  <path class="p3" d="M 541 82 L 500 80 L 493 129 L 529 131 L 541 82"/>
  <line x1="541" y1="82" x2="500" y2="80"/>
  <path class="p3" d="M 565 136 L 529 131 L 518 180 L 549 184 L 565 136"/>
  <path class="p3" d="M 529 131 L 493 129 L 486 178 L 518 180 L 529 131"/>
  <path class="p3" d="M 609 203 L 579 192 L 558 239 L 583 248 L 609 203"/>
  <path class="p3" d="M 579 192 L 549 184 L 532 232 L 558 239 L 579 192"/>
  <path class="p3" d="M 583 248 L 558 239 L 537 286 L 558 293 L 583 248"/>
  <path class="p3" d="M 558 239 L 532 232 L 516 280 L 537 286 L 558 239"/>
  <path class="p3" d="M 549 184 L 518 180 L 506 228 L 532 232 L 549 184"/>
  <path class="p3" d="M 518 180 L 486 178 L 479 227 L 506 228 L 518 180"/>
  <path class="p3" d="M 532 232 L 506 228 L 494 277 L 516 280 L 532 232"/>
  <path class="p3" d="M 506 228 L 479 227 L 472 276 L 494 277 L 506 228"/>
  <path class="p3" d="M 630 342 L 614 327 L 576 365 L 589 376 L 630 342"/>
  <path class="p3" d="M 614 327 L 596 314 L 562 354 L 576 365 L 614 327"/>
  <path class="p3" d="M 589 376 L 576 365 L 538 403 L 547 411 L 589 376"/>
  <path class="p3" d="M 576 365 L 562 354 L 528 395 L 538 403 L 576 365"/>
  <path class="p3" d="M 596 314 L 578 302 L 547 346 L 562 354 L 596 314"/>
  <path class="p3" d="M 578 302 L 558 293 L 532 338 L 547 346 L 578 302"/>
  <path class="p3" d="M 562 354 L 547 346 L 517 389 L 528 395 L 562 354"/>
  <path class="p3" d="M 547 346 L 532 338 L 506 384 L 517 389 L 547 346"/>
  <path class="p3" d="M 547 411 L 538 403 L 500 440 L 505 446 L 547 411"/>
  <path class="p3" d="M 538 403 L 528 395 L 494 436 L 500 440 L 538 403"/>
  <path class="p3" d="M 505 446 L 500 440 L 462 478 L 464 480 L 505 446"/>
  <line x1="464" y1="480" x2="462" y2="478"/>
  <path class="p3" d="M 500 440 L 494 436 L 460 477 L 462 478 L 500 440"/>
  <line x1="462" y1="478" x2="460" y2="477"/>
  <path class="p3" d="M 528 395 L 517 389 L 487 432 L 494 436 L 528 395"/>
  <path class="p3" d="M 517 389 L 506 384 L 480 429 L 487 432 L 517 389"/>
  <path class="p3" d="M 494 436 L 487 432 L 457 475 L 460 477 L 494 436"/>
  <line x1="460" y1="477" x2="457" y2="475"/>
  <path class="p3" d="M 487 432 L 480 429 L 455 474 L 457 475 L 487 432"/>
  <line x1="457" y1="475" x2="455" y2="474"/>
  <path class="p3" d="M 558 293 L 537 286 L 516 333 L 532 338 L 558 293"/>
  <path class="p3" d="M 537 286 L 516 280 L 499 328 L 516 333 L 537 286"/>
  <path class="p3" d="M 532 338 L 516 333 L 495 379 L 506 384 L 532 338"/>
  <path class="p3" d="M 516 333 L 499 328 L 483 376 L 495 379 L 516 333"/>
  <path class="p3" d="M 516 280 L 494 277 L 482 326 L 499 328 L 516 280"/>
  <path class="p3" d="M 494 277 L 472 276 L 465 325 L 482 326 L 494 277"/>
  <path class="p3" d="M 499 328 L 482 326 L 470 375 L 483 376 L 499 328"/>
  <path class="p3" d="M 482 326 L 465 325 L 458 374 L 470 375 L 482 326"/>
  <path class="p3" d="M 506 384 L 495 379 L 473 426 L 480 429 L 506 384"/>
  <path class="p3" d="M 495 379 L 483 376 L 466 424 L 473 426 L 495 379"/>
  <path class="p3" d="M 480 429 L 473 426 L 452 473 L 455 474 L 480 429"/>
  <line x1="455" y1="474" x2="452" y2="473"/>
  <path class="p3" d="M 473 426 L 466 424 L 449 473 L 452 473 L 473 426"/>
  <line x1="452" y1="473" x2="449" y2="473"/>
  <path class="p3" d="M 483 376 L 470 375 L 459 423 L 466 424 L 483 376"/>
  <path class="p3" d="M 470 375 L 458 374 L 451 423 L 459 423 L 470 375"/>
  <path class="p3" d="M 466 424 L 459 423 L 447 472 L 449 473 L 466 424"/>
  <line x1="449" y1="473" x2="447" y2="472"/>
  <path class="p3" d="M 459 423 L 451 423 L 444 472 L 447 472 L 459 423"/>
  <line x1="447" y1="472" x2="444" y2="472"/>
  <path class="p3" d="M 500 80 L 459 82 L 457 131 L 493 129 L 500 80"/>
  <line x1="500" y1="80" x2="459" y2="82"/>
  <path class="p3" d="M 459 82 L 418 88 L 421 136 L 457 131 L 459 82"/>
  <line x1="459" y1="82" x2="418" y2="88"/>
  <path class="p3" d="M 493 129 L 457 131 L 454 180 L 486 178 L 493 129"/>
  <path class="p3" d="M 457 131 L 421 136 L 423 184 L 454 180 L 457 131"/>
  <path class="p3" d="M 418 88 L 378 98 L 385 145 L 421 136 L 418 88"/>
  <line x1="418" y1="88" x2="378" y2="98"/>
  <path class="p3" d="M 378 98 L 339 112 L 351 157 L 385 145 L 378 98"/>
  <line x1="378" y1="98" x2="339" y2="112"/>
  <path class="p3" d="M 421 136 L 385 145 L 393 192 L 423 184 L 421 136"/>
  <path class="p3" d="M 385 145 L 351 157 L 363 203 L 393 192 L 385 145"/>
  <path class="p3" d="M 486 178 L 454 180 L 452 228 L 479 227 L 486 178"/>
  <path class="p3" d="M 454 180 L 423 184 L 426 232 L 452 228 L 454 180"/>
  <path class="p3" d="M 479 227 L 452 228 L 450 277 L 472 276 L 479 227"/>
  <path class="p3" d="M 452 228 L 426 232 L 428 280 L 450 277 L 452 228"/>
  <path class="p3" d="M 423 184 L 393 192 L 400 239 L 426 232 L 423 184"/>
  <path class="p3" d="M 393 192 L 363 203 L 375 248 L 400 239 L 393 192"/>
  <path class="p3" d="M 426 232 L 400 239 L 407 286 L 428 280 L 426 232"/>
  <path class="p3" d="M 400 239 L 375 248 L 386 293 L 407 286 L 400 239"/>
  <path class="p3" d="M 339 112 L 302 130 L 318 173 L 351 157 L 339 112"/>
  <line x1="339" y1="112" x2="302" y2="130"/>
  <path class="p3" d="M 302 130 L 267 151 L 287 192 L 318 173 L 302 130"/>
  <line x1="302" y1="130" x2="267" y2="151"/>
  <path class="p3" d="M 351 157 L 318 173 L 334 216 L 363 203 L 351 157"/>
  <path class="p3" d="M 318 173 L 287 192 L 307 232 L 334 216 L 318 173"/>
  <path class="p3" d="M 267 151 L 234 175 L 258 213 L 287 192 L 267 151"/>
  <line x1="267" y1="151" x2="234" y2="175"/>
  <path class="p3" d="M 234 175 L 203 203 L 231 238 L 258 213 L 234 175"/>
  <line x1="234" y1="175" x2="203" y2="203"/>
  <path class="p3" d="M 287 192 L 258 213 L 282 251 L 307 232 L 287 192"/>
  <path class="p3" d="M 258 213 L 231 238 L 258 272 L 282 251 L 258 213"/>
  <path class="p3" d="M 363 203 L 334 216 L 350 259 L 375 248 L 363 203"/>
  <path class="p3" d="M 334 216 L 307 232 L 327 273 L 350 259 L 334 216"/>
  <path class="p3" d="M 375 248 L 350 259 L 366 302 L 386 293 L 375 248"/>
  <path class="p3" d="M 350 259 L 327 273 L 348 314 L 366 302 L 350 259"/>
  <path class="p3" d="M 307 232 L 282 251 L 306 289 L 327 273 L 307 232"/>
  <path class="p3" d="M 282 251 L 258 272 L 286 307 L 306 289 L 282 251"/>
  <path class="p3" d="M 327 273 L 306 289 L 330 327 L 348 314 L 327 273"/>
  <path class="p3" d="M 306 289 L 286 307 L 314 342 L 330 327 L 306 289"/>
  <path class="p3" d="M 472 276 L 450 277 L 448 326 L 465 325 L 472 276"/>
  <path class="p3" d="M 450 277 L 428 280 L 431 328 L 448 326 L 450 277"/>
  <path class="p3" d="M 465 325 L 448 326 L 446 375 L 458 374 L 465 325"/>
  <path class="p3" d="M 448 326 L 431 328 L 433 376 L 446 375 L 448 326"/>
  <path class="p3" d="M 428 280 L 407 286 L 414 333 L 431 328 L 428 280"/>
  <path class="p3" d="M 407 286 L 386 293 L 398 338 L 414 333 L 407 286"/>
  <path class="p3" d="M 431 328 L 414 333 L 421 379 L 433 376 L 431 328"/>
  <path class="p3" d="M 414 333 L 398 338 L 410 384 L 421 379 L 414 333"/>
  <path class="p3" d="M 458 374 L 446 375 L 443 423 L 451 423 L 458 374"/>
  <path class="p3" d="M 446 375 L 433 376 L 436 424 L 443 423 L 446 375"/>
  <path class="p3" d="M 451 423 L 443 423 L 441 472 L 444 472 L 451 423"/>
  <line x1="444" y1="472" x2="441" y2="472"/>
  <path class="p3" d="M 443 423 L 436 424 L 439 473 L 441 472 L 443 423"/>
  <line x1="441" y1="472" x2="439" y2="473"/>
  <path class="p3" d="M 433 376 L 421 379 L 429 426 L 436 424 L 433 376"/>
  <path class="p3" d="M 421 379 L 410 384 L 422 429 L 429 426 L 421 379"/>
  <path class="p3" d="M 436 424 L 429 426 L 436 473 L 439 473 L 436 424"/>
  <line x1="439" y1="473" x2="436" y2="473"/>
  <path class="p3" d="M 429 426 L 422 429 L 433 474 L 436 473 L 429 426"/>
  <line x1="436" y1="473" x2="433" y2="474"/>
  <path class="p3" d="M 386 293 L 366 302 L 383 346 L 398 338 L 386 293"/>
  <path class="p3" d="M 366 302 L 348 314 L 368 354 L 383 346 L 366 302"/>
  <path class="p3" d="M 398 338 L 383 346 L 399 389 L 410 384 L 398 338"/>
  <path class="p3" d="M 383 346 L 368 354 L 388 395 L 399 389 L 383 346"/>
  <path class="p3" d="M 348 314 L 330 327 L 354 365 L 368 354 L 348 314"/>
  <path class="p3" d="M 330 327 L 314 342 L 341 376 L 354 365 L 330 327"/>
  <path class="p3" d="M 368 354 L 354 365 L 378 403 L 388 395 L 368 354"/>
  <path class="p3" d="M 354 365 L 341 376 L 369 411 L 378 403 L 354 365"/>
  <path class="p3" d="M 410 384 L 399 389 L 415 432 L 422 429 L 410 384"/>
  <path class="p3" d="M 399 389 L 388 395 L 408 436 L 415 432 L 399 389"/>
  <path class="p3" d="M 422 429 L 415 432 L 431 475 L 433 474 L 422 429"/>
  <line x1="433" y1="474" x2="431" y2="475"/>
  <path class="p3" d="M 415 432 L 408 436 L 428 477 L 431 475 L 415 432"/>
  <line x1="431" y1="475" x2="428" y2="477"/>
  <path class="p3" d="M 388 395 L 378 403 L 402 440 L 408 436 L 388 395"/>
  <path class="p3" d="M 378 403 L 369 411 L 397 446 L 402 440 L 378 403"/>
  <path class="p3" d="M 408 436 L 402 440 L 426 478 L 428 477 L 408 436"/>
  <line x1="428" y1="477" x2="426" y2="478"/>
  <path class="p3" d="M 402 440 L 397 446 L 424 480 L 426 478 L 402 440"/>
  <line x1="426" y1="478" x2="424" y2="480"/>
  <path class="p3" d="M 203 203 L 175 234 L 206 265 L 231 238 L 203 203"/>
  <line x1="203" y1="203" x2="175" y2="234"/>
  <path class="p3" d="M 175 234 L 151 267 L 185 294 L 206 265 L 175 234"/>
  <line x1="175" y1="234" x2="151" y2="267"/>
  <path class="p3" d="M 231 238 L 206 265 L 237 296 L 258 272 L 231 238"/>
  <path class="p3" d="M 206 265 L 185 294 L 218 321 L 237 296 L 206 265"/>
  <path class="p3" d="M 151 267 L 130 302 L 166 325 L 185 294 L 151 267"/>
  <line x1="151" y1="267" x2="130" y2="302"/>
  <path class="p3" d="M 130 302 L 112 339 L 150 358 L 166 325 L 130 302"/>
  <line x1="130" y1="302" x2="112" y2="339"/>
  <path class="p3" d="M 185 294 L 166 325 L 202 348 L 218 321 L 185 294"/>
  <path class="p3" d="M 166 325 L 150 358 L 189 377 L 202 348 L 166 325"/>
  <path class="p3" d="M 258 272 L 237 296 L 268 327 L 286 307 L 258 272"/>
  <path class="p3" d="M 237 296 L 218 321 L 252 348 L 268 327 L 237 296"/>
  <path class="p3" d="M 286 307 L 268 327 L 299 358 L 314 342 L 286 307"/>
  <path class="p3" d="M 268 327 L 252 348 L 286 376 L 299 358 L 268 327"/>
  <path class="p3" d="M 218 321 L 202 348 L 238 371 L 252 348 L 218 321"/>
  <path class="p3" d="M 202 348 L 189 377 L 227 396 L 238 371 L 202 348"/>
  <path class="p3" d="M 252 348 L 238 371 L 274 394 L 286 376 L 252 348"/>
  <path class="p3" d="M 238 371 L 227 396 L 265 414 L 274 394 L 238 371"/>
  <path class="p3" d="M 112 339 L 98 378 L 138 392 L 150 358 L 112 339"/>
  <line x1="112" y1="339" x2="98" y2="378"/>
  <path class="p3" d="M 98 378 L 88 418 L 129 428 L 138 392 L 98 378"/>
  <line x1="98" y1="378" x2="88" y2="418"/>
  <path class="p3" d="M 150 358 L 138 392 L 178 407 L 189 377 L 150 358"/>
  <path class="p3" d="M 138 392 L 129 428 L 170 437 L 178 407 L 138 392"/>
  <path class="p3" d="M 88 418 L 82 459 L 124 464 L 129 428 L 88 418"/>
  <line x1="88" y1="418" x2="82" y2="459"/>
  <path class="p3" d="M 82 459 L 80 500 L 122 500 L 124 464 L 82 459"/>
  <line x1="82" y1="459" x2="80" y2="500"/>
  <path class="p3" d="M 129 428 L 124 464 L 166 468 L 170 437 L 129 428"/>
  <path class="p3" d="M 124 464 L 122 500 L 164 500 L 166 468 L 124 464"/>
  <path class="p3" d="M 189 377 L 178 407 L 218 421 L 227 396 L 189 377"/>
  <path class="p3" d="M 178 407 L 170 437 L 211 447 L 218 421 L 178 407"/>
  <path class="p3" d="M 227 396 L 218 421 L 258 435 L 265 414 L 227 396"/>
  <path class="p3" d="M 218 421 L 211 447 L 252 456 L 258 435 L 218 421"/>
  <path class="p3" d="M 170 437 L 166 468 L 207 473 L 211 447 L 170 437"/>
  <path class="p3" d="M 166 468 L 164 500 L 206 500 L 207 473 L 166 468"/>
  <path class="p3" d="M 211 447 L 207 473 L 249 478 L 252 456 L 211 447"/>
  <path class="p3" d="M 207 473 L 206 500 L 248 500 L 249 478 L 207 473"/>
  <path class="p3" d="M 314 342 L 299 358 L 330 389 L 341 376 L 314 342"/>
  <path class="p3" d="M 299 358 L 286 376 L 319 403 L 330 389 L 299 358"/>
  <path class="p3" d="M 341 376 L 330 389 L 361 420 L 369 411 L 341 376"/>
  <path class="p3" d="M 330 389 L 319 403 L 353 430 L 361 420 L 330 389"/>
  <path class="p3" d="M 286 376 L 274 394 L 311 418 L 319 403 L 286 376"/>
  <path class="p3" d="M 274 394 L 265 414 L 303 433 L 311 418 L 274 394"/>
  <path class="p3" d="M 319 403 L 311 418 L 347 441 L 353 430 L 319 403"/>
  <path class="p3" d="M 311 418 L 303 433 L 342 452 L 347 441 L 311 418"/>
  <path class="p3" d="M 369 411 L 361 420 L 391 451 L 397 446 L 369 411"/>
  <path class="p3" d="M 361 420 L 353 430 L 387 457 L 391 451 L 361 420"/>
  <path class="p3" d="M 397 446 L 391 451 L 422 482 L 424 480 L 397 446"/>
  <line x1="424" y1="480" x2="422" y2="482"/>
  <path class="p3" d="M 391 451 L 387 457 L 421 484 L 422 482 L 391 451"/>
  <line x1="422" y1="482" x2="421" y2="484"/>
  <path class="p3" d="M 353 430 L 347 441 L 383 464 L 387 457 L 353 430"/>
  <path class="p3" d="M 347 441 L 342 452 L 380 471 L 383 464 L 347 441"/>
  <path class="p3" d="M 387 457 L 383 464 L 419 487 L 421 484 L 387 457"/>
  <line x1="421" y1="484" x2="419" y2="487"/>
  <path class="p3" d="M 383 464 L 380 471 L 418 489 L 419 487 L 383 464"/>
  <line x1="419" y1="487" x2="418" y2="489"/>
  <path class="p3" d="M 265 414 L 258 435 L 298 449 L 303 433 L 265 414"/>
  <path class="p3" d="M 258 435 L 252 456 L 293 466 L 298 449 L 258 435"/>
  <path class="p3" d="M 303 433 L 298 449 L 337 463 L 342 452 L 303 433"/>
  <path class="p3" d="M 298 449 L 293 466 L 334 475 L 337 463 L 298 449"/>
  <path class="p3" d="M 252 456 L 249 478 L 291 483 L 293 466 L 252 456"/>
  <path class="p3" d="M 249 478 L 248 500 L 290 500 L 291 483 L 249 478"/>
  <path class="p3" d="M 293 466 L 291 483 L 333 488 L 334 475 L 293 466"/>
  <path class="p3" d="M 291 483 L 290 500 L 332 500 L 333 488 L 291 483"/>
  <path class="p3" d="M 342 452 L 337 463 L 377 478 L 380 471 L 342 452"/>
  <path class="p3" d="M 337 463 L 334 475 L 375 485 L 377 478 L 337 463"/>
  <path class="p3" d="M 380 471 L 377 478 L 417 492 L 418 489 L 380 471"/>
  <line x1="418" y1="489" x2="417" y2="492"/>
  <path class="p3" d="M 377 478 L 375 485 L 417 495 L 417 492 L 377 478"/>
  <line x1="417" y1="492" x2="417" y2="495"/>
  <path class="p3" d="M 334 475 L 333 488 L 374 492 L 375 485 L 334 475"/>
  <path class="p3" d="M 333 488 L 332 500 L 374 500 L 374 492 L 333 488"/>
  <path class="p3" d="M 375 485 L 374 492 L 416 497 L 417 495 L 375 485"/>
  <line x1="417" y1="495" x2="416" y2="497"/>
  <path class="p3" d="M 374 492 L 374 500 L 416 500 L 416 497 L 374 492"/>
  <line x1="416" y1="497" x2="416" y2="500"/>
  <path class="p3" d="M 80 500 L 82 541 L 124 536 L 122 500 L 80 500"/>
  <line x1="80" y1="500" x2="82" y2="541"/>
  <path class="p3" d="M 82 541 L 88 582 L 129 572 L 124 536 L 82 541"/>
  <line x1="82" y1="541" x2="88" y2="582"/>
  <path class="p3" d="M 122 500 L 124 536 L 166 532 L 164 500 L 122 500"/>
  <path class="p3" d="M 124 536 L 129 572 L 170 563 L 166 532 L 124 536"/>
  <path class="p3" d="M 88 582 L 98 622 L 138 608 L 129 572 L 88 582"/>
  <line x1="88" y1="582" x2="98" y2="622"/>
  <path class="p3" d="M 98 622 L 112 661 L 150 642 L 138 608 L 98 622"/>
  <line x1="98" y1="622" x2="112" y2="661"/>
  <path class="p3" d="M 129 572 L 138 608 L 178 593 L 170 563 L 129 572"/>
  <path class="p3" d="M 138 608 L 150 642 L 189 623 L 178 593 L 138 608"/>
  <path class="p3" d="M 164 500 L 166 532 L 207 527 L 206 500 L 164 500"/>
  <path class="p3" d="M 166 532 L 170 563 L 211 553 L 207 527 L 166 532"/>
  <path class="p3" d="M 206 500 L 207 527 L 249 522 L 248 500 L 206 500"/>
  <path class="p3" d="M 207 527 L 211 553 L 252 544 L 249 522 L 207 527"/>
  <path class="p3" d="M 170 563 L 178 593 L 218 579 L 211 553 L 170 563"/>
  <path class="p3" d="M 178 593 L 189 623 L 227 604 L 218 579 L 178 593"/>
  <path class="p3" d="M 211 553 L 218 579 L 258 565 L 252 544 L 211 553"/>
  <path class="p3" d="M 218 579 L 227 604 L 265 586 L 258 565 L 218 579"/>
  <path class="p3" d="M 112 661 L 130 698 L 166 675 L 150 642 L 112 661"/>
  <line x1="112" y1="661" x2="130" y2="698"/>
  <path class="p3" d="M 130 698 L 151 733 L 185 706 L 166 675 L 130 698"/>
  <line x1="130" y1="698" x2="151" y2="733"/>
  <path class="p3" d="M 150 642 L 166 675 L 202 652 L 189 623 L 150 642"/>
  <path class="p3" d="M 166 675 L 185 706 L 218 679 L 202 652 L 166 675"/>
  <path class="p3" d="M 151 733 L 175 766 L 206 735 L 185 706 L 151 733"/>
  <line x1="151" y1="733" x2="175" y2="766"/>
  <path class="p3" d="M 175 766 L 203 797 L 231 762 L 206 735 L 175 766"/>
  <line x1="175" y1="766" x2="203" y2="797"/>
  <path class="p3" d="M 185 706 L 206 735 L 237 704 L 218 679 L 185 706"/>
  <path class="p3" d="M 206 735 L 231 762 L 258 728 L 237 704 L 206 735"/>
  <path class="p3" d="M 189 623 L 202 652 L 238 629 L 227 604 L 189 623"/>
  <path class="p3" d="M 202 652 L 218 679 L 252 652 L 238 629 L 202 652"/>
  <path class="p3" d="M 227 604 L 238 629 L 274 606 L 265 586 L 227 604"/>
  <path class="p3" d="M 238 629 L 252 652 L 286 624 L 274 606 L 238 629"/>
  <path class="p3" d="M 218 679 L 237 704 L 268 673 L 252 652 L 218 679"/>
  <path class="p3" d="M 237 704 L 258 728 L 286 693 L 268 673 L 237 704"/>
  <path class="p3" d="M 252 652 L 268 673 L 299 642 L 286 624 L 252 652"/>
  <path class="p3" d="M 268 673 L 286 693 L 314 658 L 299 642 L 268 673"/>
  <path class="p3" d="M 248 500 L 249 522 L 291 517 L 290 500 L 248 500"/>
  <path class="p3" d="M 249 522 L 252 544 L 293 534 L 291 517 L 249 522"/>
  <path class="p3" d="M 290 500 L 291 517 L 333 512 L 332 500 L 290 500"/>
  <path class="p3" d="M 291 517 L 293 534 L 334 525 L 333 512 L 291 517"/>
  <path class="p3" d="M 252 544 L 258 565 L 298 551 L 293 534 L 252 544"/>
  <path class="p3" d="M 258 565 L 265 586 L 303 567 L 298 551 L 258 565"/>
  <path class="p3" d="M 293 534 L 298 551 L 337 537 L 334 525 L 293 534"/>
  <path class="p3" d="M 298 551 L 303 567 L 342 548 L 337 537 L 298 551"/>
  <path class="p3" d="M 332 500 L 333 512 L 374 508 L 374 500 L 332 500"/>
  <path class="p3" d="M 333 512 L 334 525 L 375 515 L 374 508 L 333 512"/>
  <path class="p3" d="M 374 500 L 374 508 L 416 503 L 416 500 L 374 500"/>
  <line x1="416" y1="500" x2="416" y2="503"/>
  <path class="p3" d="M 374 508 L 375 515 L 417 505 L 416 503 L 374 508"/>
  <line x1="416" y1="503" x2="417" y2="505"/>
  <path class="p3" d="M 334 525 L 337 537 L 377 522 L 375 515 L 334 525"/>
  <path class="p3" d="M 337 537 L 342 548 L 380 529 L 377 522 L 337 537"/>
  <path class="p3" d="M 375 515 L 377 522 L 417 508 L 417 505 L 375 515"/>
  <line x1="417" y1="505" x2="417" y2="508"/>
  <path class="p3" d="M 377 522 L 380 529 L 418 511 L 417 508 L 377 522"/>
  <line x1="417" y1="508" x2="418" y2="511"/>
  <path class="p3" d="M 265 586 L 274 606 L 311 582 L 303 567 L 265 586"/>
  <path class="p3" d="M 274 606 L 286 624 L 319 597 L 311 582 L 274 606"/>
  <path class="p3" d="M 303 567 L 311 582 L 347 559 L 342 548 L 303 567"/>
  <path class="p3" d="M 311 582 L 319 597 L 353 570 L 347 559 L 311 582"/>
  <path class="p3" d="M 286 624 L 299 642 L 330 611 L 319 597 L 286 624"/>
  <path class="p3" d="M 299 642 L 314 658 L 341 624 L 330 611 L 299 642"/>
  <path class="p3" d="M 319 597 L 330 611 L 361 580 L 353 570 L 319 597"/>
  <path class="p3" d="M 330 611 L 341 624 L 369 589 L 361 580 L 330 611"/>
  <path class="p3" d="M 342 548 L 347 559 L 383 536 L 380 529 L 342 548"/>
  <path class="p3" d="M 347 559 L 353 570 L 387 543 L 383 536 L 347 559"/>
  <path class="p3" d="M 380 529 L 383 536 L 419 513 L 418 511 L 380 529"/>
  <line x1="418" y1="511" x2="419" y2="513"/>
  <path class="p3" d="M 383 536 L 387 543 L 421 516 L 419 513 L 383 536"/>
  <line x1="419" y1="513" x2="421" y2="516"/>
  <path class="p3" d="M 353 570 L 361 580 L 391 549 L 387 543 L 353 570"/>
  <path class="p3" d="M 361 580 L 369 589 L 397 554 L 391 549 L 361 580"/>
  <path class="p3" d="M 387 543 L 391 549 L 422 518 L 421 516 L 387 543"/>
  <line x1="421" y1="516" x2="422" y2="518"/>
  <path class="p3" d="M 391 549 L 397 554 L 424 520 L 422 518 L 391 549"/>
  <line x1="422" y1="518" x2="424" y2="520"/>
  <path class="p3" d="M 203 797 L 234 825 L 258 787 L 231 762 L 203 797"/>
  <line x1="203" y1="797" x2="234" y2="825"/>
  <path class="p3" d="M 234 825 L 267 849 L 287 808 L 258 787 L 234 825"/>
  <line x1="234" y1="825" x2="267" y2="849"/>
  <path class="p3" d="M 231 762 L 258 787 L 282 749 L 258 728 L 231 762"/>
  <path class="p3" d="M 258 787 L 287 808 L 307 768 L 282 749 L 258 787"/>
  <path class="p3" d="M 267 849 L 302 870 L 318 827 L 287 808 L 267 849"/>
  <line x1="267" y1="849" x2="302" y2="870"/>
  <path class="p3" d="M 302 870 L 339 888 L 351 843 L 318 827 L 302 870"/>
  <line x1="302" y1="870" x2="339" y2="888"/>
  <path class="p3" d="M 287 808 L 318 827 L 334 784 L 307 768 L 287 808"/>
  <path class="p3" d="M 318 827 L 351 843 L 363 797 L 334 784 L 318 827"/>
  <path class="p3" d="M 258 728 L 282 749 L 306 711 L 286 693 L 258 728"/>
  <path class="p3" d="M 282 749 L 307 768 L 327 727 L 306 711 L 282 749"/>
  <path class="p3" d="M 286 693 L 306 711 L 330 673 L 314 658 L 286 693"/>
  <path class="p3" d="M 306 711 L 327 727 L 348 686 L 330 673 L 306 711"/>
  <path class="p3" d="M 307 768 L 334 784 L 350 741 L 327 727 L 307 768"/>
  <path class="p3" d="M 334 784 L 363 797 L 375 752 L 350 741 L 334 784"/>
  <path class="p3" d="M 327 727 L 350 741 L 366 698 L 348 686 L 327 727"/>
  <path class="p3" d="M 350 741 L 375 752 L 386 707 L 366 698 L 350 741"/>
  <path class="p3" d="M 339 888 L 378 902 L 385 855 L 351 843 L 339 888"/>
  <line x1="339" y1="888" x2="378" y2="902"/>
  <path class="p3" d="M 378 902 L 418 912 L 421 864 L 385 855 L 378 902"/>
  <line x1="378" y1="902" x2="418" y2="912"/>
  <path class="p3" d="M 351 843 L 385 855 L 393 808 L 363 797 L 351 843"/>
  <path class="p3" d="M 385 855 L 421 864 L 423 816 L 393 808 L 385 855"/>
  <path class="p3" d="M 418 912 L 459 918 L 457 869 L 421 864 L 418 912"/>
  <line x1="418" y1="912" x2="459" y2="918"/>
  <path class="p3" d="M 459 918 L 500 920 L 493 871 L 457 869 L 459 918"/>
  <line x1="459" y1="918" x2="500" y2="920"/>
  <path class="p3" d="M 421 864 L 457 869 L 454 820 L 423 816 L 421 864"/>
  <path class="p3" d="M 457 869 L 493 871 L 486 822 L 454 820 L 457 869"/>
  <path class="p3" d="M 363 797 L 393 808 L 400 761 L 375 752 L 363 797"/>
  <path class="p3" d="M 393 808 L 423 816 L 426 768 L 400 761 L 393 808"/>
  <path class="p3" d="M 375 752 L 400 761 L 407 714 L 386 707 L 375 752"/>
  <path class="p3" d="M 400 761 L 426 768 L 428 720 L 407 714 L 400 761"/>
  <path class="p3" d="M 423 816 L 454 820 L 452 772 L 426 768 L 423 816"/>
  <path class="p3" d="M 454 820 L 486 822 L 479 773 L 452 772 L 454 820"/>
  <path class="p3" d="M 426 768 L 452 772 L 450 723 L 428 720 L 426 768"/>
  <path class="p3" d="M 452 772 L 479 773 L 472 724 L 450 723 L 452 772"/>
  <path class="p3" d="M 314 658 L 330 673 L 354 635 L 341 624 L 314 658"/>
  <path class="p3" d="M 330 673 L 348 686 L 368 646 L 354 635 L 330 673"/>
  <path class="p3" d="M 341 624 L 354 635 L 378 597 L 369 589 L 341 624"/>
  <path class="p3" d="M 354 635 L 368 646 L 388 605 L 378 597 L 354 635"/>
  <path class="p3" d="M 348 686 L 366 698 L 383 654 L 368 646 L 348 686"/>
  <path class="p3" d="M 366 698 L 386 707 L 398 662 L 383 654 L 366 698"/>
  <path class="p3" d="M 368 646 L 383 654 L 399 611 L 388 605 L 368 646"/>
  <path class="p3" d="M 383 654 L 398 662 L 410 616 L 399 611 L 383 654"/>
  <path class="p3" d="M 369 589 L 378 597 L 402 560 L 397 554 L 369 589"/>
  <path class="p3" d="M 378 597 L 388 605 L 408 564 L 402 560 L 378 597"/>
  <path class="p3" d="M 397 554 L 402 560 L 426 522 L 424 520 L 397 554"/>
  <line x1="424" y1="520" x2="426" y2="522"/>
  <path class="p3" d="M 402 560 L 408 564 L 428 523 L 426 522 L 402 560"/>
  <line x1="426" y1="522" x2="428" y2="523"/>
  <path class="p3" d="M 388 605 L 399 611 L 415 568 L 408 564 L 388 605"/>
  <path class="p3" d="M 399 611 L 410 616 L 422 571 L 415 568 L 399 611"/>
  <path class="p3" d="M 408 564 L 415 568 L 431 525 L 428 523 L 408 564"/>
  <line x1="428" y1="523" x2="431" y2="525"/>
  <path class="p3" d="M 415 568 L 422 571 L 433 526 L 431 525 L 415 568"/>
  <line x1="431" y1="525" x2="433" y2="526"/>
  <path class="p3" d="M 386 707 L 407 714 L 414 667 L 398 662 L 386 707"/>
  <path class="p3" d="M 407 714 L 428 720 L 431 672 L 414 667 L 407 714"/>
  <path class="p3" d="M 398 662 L 414 667 L 421 621 L 410 616 L 398 662"/>
  <path class="p3" d="M 414 667 L 431 672 L 433 624 L 421 621 L 414 667"/>
  <path class="p3" d="M 428 720 L 450 723 L 448 674 L 431 672 L 428 720"/>
  <path class="p3" d="M 450 723 L 472 724 L 465 675 L 448 674 L 450 723"/>
  <path class="p3" d="M 431 672 L 448 674 L 446 625 L 433 624 L 431 672"/>
  <path class="p3" d="M 448 674 L 465 675 L 458 626 L 446 625 L 448 674"/>
  <path class="p3" d="M 410 616 L 421 621 L 429 574 L 422 571 L 410 616"/>
  <path class="p3" d="M 421 621 L 433 624 L 436 576 L 429 574 L 421 621"/>
  <path class="p3" d="M 422 571 L 429 574 L 436 527 L 433 526 L 422 571"/>
  <line x1="433" y1="526" x2="436" y2="527"/>
  <path class="p3" d="M 429 574 L 436 576 L 439 527 L 436 527 L 429 574"/>
  <line x1="436" y1="527" x2="439" y2="527"/>
  <path class="p3" d="M 433 624 L 446 625 L 443 577 L 436 576 L 433 624"/>
  <path class="p3" d="M 446 625 L 458 626 L 451 577 L 443 577 L 446 625"/>
  <path class="p3" d="M 436 576 L 443 577 L 441 528 L 439 527 L 436 576"/>
  <line x1="439" y1="527" x2="441" y2="528"/>
  <path class="p3" d="M 443 577 L 451 577 L 444 528 L 441 528 L 443 577"/>
  <line x1="441" y1="528" x2="444" y2="528"/>
  <path class="p3" d="M 500 920 L 541 918 L 529 869 L 493 871 L 500 920"/>
  <line x1="500" y1="920" x2="541" y2="918"/>
  <path class="p3" d="M 541 918 L 582 912 L 565 864 L 529 869 L 541 918"/>
  <line x1="541" y1="918" x2="582" y2="912"/>
  <path class="p3" d="M 493 871 L 529 869 L 518 820 L 486 822 L 493 871"/>
  <path class="p3" d="M 529 869 L 565 864 L 549 816 L 518 820 L 529 869"/>
  <path class="p3" d="M 582 912 L 622 902 L 601 855 L 565 864 L 582 912"/>
  <line x1="582" y1="912" x2="622" y2="902"/>
  <path class="p3" d="M 622 902 L 661 888 L 635 843 L 601 855 L 622 902"/>
  <line x1="622" y1="902" x2="661" y2="888"/>
  <path class="p3" d="M 565 864 L 601 855 L 579 808 L 549 816 L 565 864"/>
  <path class="p3" d="M 601 855 L 635 843 L 609 797 L 579 808 L 601 855"/>
  <path class="p3" d="M 486 822 L 518 820 L 506 772 L 479 773 L 486 822"/>
  <path class="p3" d="M 518 820 L 549 816 L 532 768 L 506 772 L 518 820"/>
  <path class="p3" d="M 479 773 L 506 772 L 494 723 L 472 724 L 479 773"/>
  <path class="p3" d="M 506 772 L 532 768 L 516 720 L 494 723 L 506 772"/>
  <path class="p3" d="M 549 816 L 579 808 L 558 761 L 532 768 L 549 816"/>
  <path class="p3" d="M 579 808 L 609 797 L 583 752 L 558 761 L 579 808"/>
  <path class="p3" d="M 532 768 L 558 761 L 537 714 L 516 720 L 532 768"/>
  <path class="p3" d="M 558 761 L 583 752 L 558 707 L 537 714 L 558 761"/>
  <path class="p3" d="M 661 888 L 698 870 L 668 827 L 635 843 L 661 888"/>
  <line x1="661" y1="888" x2="698" y2="870"/>
  <path class="p3" d="M 698 870 L 733 849 L 699 808 L 668 827 L 698 870"/>
  <line x1="698" y1="870" x2="733" y2="849"/>
  <path class="p3" d="M 635 843 L 668 827 L 638 784 L 609 797 L 635 843"/>
  <path class="p3" d="M 668 827 L 699 808 L 665 768 L 638 784 L 668 827"/>
  <path class="p3" d="M 733 849 L 766 825 L 728 787 L 699 808 L 733 849"/>
  <line x1="733" y1="849" x2="766" y2="825"/>
  <path class="p3" d="M 766 825 L 797 797 L 755 762 L 728 787 L 766 825"/>
  <line x1="766" y1="825" x2="797" y2="797"/>
  <path class="p3" d="M 699 808 L 728 787 L 690 749 L 665 768 L 699 808"/>
  <path class="p3" d="M 728 787 L 755 762 L 714 728 L 690 749 L 728 787"/>
  <path class="p3" d="M 609 797 L 638 784 L 608 741 L 583 752 L 609 797"/>
  <path class="p3" d="M 638 784 L 665 768 L 631 727 L 608 741 L 638 784"/>
  <path class="p3" d="M 583 752 L 608 741 L 578 698 L 558 707 L 583 752"/>
  <path class="p3" d="M 608 741 L 631 727 L 596 686 L 578 698 L 608 741"/>
  <path class="p3" d="M 665 768 L 690 749 L 652 711 L 631 727 L 665 768"/>
  <path class="p3" d="M 690 749 L 714 728 L 672 693 L 652 711 L 690 749"/>
  <path class="p3" d="M 631 727 L 652 711 L 614 673 L 596 686 L 631 727"/>
  <path class="p3" d="M 652 711 L 672 693 L 630 658 L 614 673 L 652 711"/>
  <path class="p3" d="M 472 724 L 494 723 L 482 674 L 465 675 L 472 724"/>
  <path class="p3" d="M 494 723 L 516 720 L 499 672 L 482 674 L 494 723"/>
  <path class="p3" d="M 465 675 L 482 674 L 470 625 L 458 626 L 465 675"/>
  <path class="p3" d="M 482 674 L 499 672 L 483 624 L 470 625 L 482 674"/>
  <path class="p3" d="M 516 720 L 537 714 L 516 667 L 499 672 L 516 720"/>
  <path class="p3" d="M 537 714 L 558 707 L 532 662 L 516 667 L 537 714"/>
  <path class="p3" d="M 499 672 L 516 667 L 495 621 L 483 624 L 499 672"/>
  <path class="p3" d="M 516 667 L 532 662 L 506 616 L 495 621 L 516 667"/>
  <path class="p3" d="M 458 626 L 470 625 L 459 577 L 451 577 L 458 626"/>
  <path class="p3" d="M 470 625 L 483 624 L 466 576 L 459 577 L 470 625"/>
  <path class="p3" d="M 451 577 L 459 577 L 447 528 L 444 528 L 451 577"/>
  <line x1="444" y1="528" x2="447" y2="528"/>
  <path class="p3" d="M 459 577 L 466 576 L 449 527 L 447 528 L 459 577"/>
  <line x1="447" y1="528" x2="449" y2="527"/>
  <path class="p3" d="M 483 624 L 495 621 L 473 574 L 466 576 L 483 624"/>
  <path class="p3" d="M 495 621 L 506 616 L 480 571 L 473 574 L 495 621"/>
  <path class="p3" d="M 466 576 L 473 574 L 452 527 L 449 527 L 466 576"/>
  <line x1="449" y1="527" x2="452" y2="527"/>
  <path class="p3" d="M 473 574 L 480 571 L 455 526 L 452 527 L 473 574"/>
  <line x1="452" y1="527" x2="455" y2="526"/>
  <path class="p3" d="M 558 707 L 578 698 L 547 654 L 532 662 L 558 707"/>
  <path class="p3" d="M 578 698 L 596 686 L 562 646 L 547 654 L 578 698"/>
  <path class="p3" d="M 532 662 L 547 654 L 517 611 L 506 616 L 532 662"/>
  <path class="p3" d="M 547 654 L 562 646 L 528 605 L 517 611 L 547 654"/>
  <path class="p3" d="M 596 686 L 614 673 L 576 635 L 562 646 L 596 686"/>
  <path class="p3" d="M 614 673 L 630 658 L 589 624 L 576 635 L 614 673"/>
  <path class="p3" d="M 562 646 L 576 635 L 538 597 L 528 605 L 562 646"/>
  <path class="p3" d="M 576 635 L 589 624 L 547 589 L 538 597 L 576 635"/>
  <path class="p3" d="M 506 616 L 517 611 L 487 568 L 480 571 L 506 616"/>
  <path class="p3" d="M 517 611 L 528 605 L 494 564 L 487 568 L 517 611"/>
  <path class="p3" d="M 480 571 L 487 568 L 457 525 L 455 526 L 480 571"/>
  <line x1="455" y1="526" x2="457" y2="525"/>
  <path class="p3" d="M 487 568 L 494 564 L 460 523 L 457 525 L 487 568"/>
  <line x1="457" y1="525" x2="460" y2="523"/>
  <path class="p3" d="M 528 605 L 538 597 L 500 560 L 494 564 L 528 605"/>
  <path class="p3" d="M 538 597 L 547 589 L 505 554 L 500 560 L 538 597"/>
  <path class="p3" d="M 494 564 L 500 560 L 462 522 L 460 523 L 494 564"/>
  <line x1="460" y1="523" x2="462" y2="522"/>
  <path class="p3" d="M 500 560 L 505 554 L 464 520 L 462 522 L 500 560"/>
  <line x1="462" y1="522" x2="464" y2="520"/>
  <path class="p3" d="M 797 797 L 825 766 L 780 735 L 755 762 L 797 797"/>
  <line x1="797" y1="797" x2="825" y2="766"/>
  <path class="p3" d="M 825 766 L 849 733 L 801 706 L 780 735 L 825 766"/>
  <line x1="825" y1="766" x2="849" y2="733"/>
  <path class="p3" d="M 755 762 L 780 735 L 735 704 L 714 728 L 755 762"/>
  <path class="p3" d="M 780 735 L 801 706 L 754 679 L 735 704 L 780 735"/>
  <path class="p3" d="M 849 733 L 870 698 L 820 675 L 801 706 L 849 733"/>
  <line x1="849" y1="733" x2="870" y2="698"/>
  <path class="p3" d="M 870 698 L 888 661 L 836 642 L 820 675 L 870 698"/>
  <line x1="870" y1="698" x2="888" y2="661"/>
  <path class="p3" d="M 801 706 L 820 675 L 770 652 L 754 679 L 801 706"/>
  <path class="p3" d="M 820 675 L 836 642 L 783 623 L 770 652 L 820 675"/>
  <path class="p3" d="M 714 728 L 735 704 L 690 673 L 672 693 L 714 728"/>
  <path class="p3" d="M 735 704 L 754 679 L 706 652 L 690 673 L 735 704"/>
  <path class="p3" d="M 672 693 L 690 673 L 645 642 L 630 658 L 672 693"/>
  <path class="p3" d="M 690 673 L 706 652 L 658 624 L 645 642 L 690 673"/>
  <path class="p3" d="M 754 679 L 770 652 L 720 629 L 706 652 L 754 679"/>
  <path class="p3" d="M 770 652 L 783 623 L 731 604 L 720 629 L 770 652"/>
  <path class="p3" d="M 706 652 L 720 629 L 670 606 L 658 624 L 706 652"/>
  <path class="p3" d="M 720 629 L 731 604 L 679 586 L 670 606 L 720 629"/>
  <path class="p3" d="M 888 661 L 902 622 L 848 608 L 836 642 L 888 661"/>
  <line x1="888" y1="661" x2="902" y2="622"/>
  <path class="p3" d="M 902 622 L 912 582 L 857 572 L 848 608 L 902 622"/>
  <line x1="902" y1="622" x2="912" y2="582"/>
  <path class="p3" d="M 836 642 L 848 608 L 794 593 L 783 623 L 836 642"/>
  <path class="p3" d="M 848 608 L 857 572 L 802 563 L 794 593 L 848 608"/>
  <path class="p3" d="M 912 582 L 918 541 L 862 536 L 857 572 L 912 582"/>
  <line x1="912" y1="582" x2="918" y2="541"/>
  <path class="p3" d="M 918 541 L 920 500 L 864 500 L 862 536 L 918 541"/>
  <line x1="918" y1="541" x2="920" y2="500"/>
  <path class="p3" d="M 857 572 L 862 536 L 806 532 L 802 563 L 857 572"/>
  <path class="p3" d="M 862 536 L 864 500 L 808 500 L 806 532 L 862 536"/>
  <path class="p3" d="M 783 623 L 794 593 L 740 579 L 731 604 L 783 623"/>
  <path class="p3" d="M 794 593 L 802 563 L 747 553 L 740 579 L 794 593"/>
  <path class="p3" d="M 731 604 L 740 579 L 686 565 L 679 586 L 731 604"/>
  <path class="p3" d="M 740 579 L 747 553 L 692 544 L 686 565 L 740 579"/>
  <path class="p3" d="M 802 563 L 806 532 L 751 527 L 747 553 L 802 563"/>
  <path class="p3" d="M 806 532 L 808 500 L 752 500 L 751 527 L 806 532"/>
  <path class="p3" d="M 747 553 L 751 527 L 695 522 L 692 544 L 747 553"/>
  <path class="p3" d="M 751 527 L 752 500 L 696 500 L 695 522 L 751 527"/>
  <path class="p3" d="M 630 658 L 645 642 L 600 611 L 589 624 L 630 658"/>
  <path class="p3" d="M 645 642 L 658 624 L 611 597 L 600 611 L 645 642"/>
  <path class="p3" d="M 589 624 L 600 611 L 555 580 L 547 589 L 589 624"/>
  <path class="p3" d="M 600 611 L 611 597 L 563 570 L 555 580 L 600 611"/>
  <path class="p3" d="M 658 624 L 670 606 L 619 582 L 611 597 L 658 624"/>
  <path class="p3" d="M 670 606 L 679 586 L 627 567 L 619 582 L 670 606"/>
  <path class="p3" d="M 611 597 L 619 582 L 569 559 L 563 570 L 611 597"/>
  <path class="p3" d="M 619 582 L 627 567 L 574 548 L 569 559 L 619 582"/>
  <path class="p3" d="M 547 589 L 555 580 L 511 549 L 505 554 L 547 589"/>
  <path class="p3" d="M 555 580 L 563 570 L 515 543 L 511 549 L 555 580"/>
  <path class="p3" d="M 505 554 L 511 549 L 466 518 L 464 520 L 505 554"/>
  <line x1="464" y1="520" x2="466" y2="518"/>
  <path class="p3" d="M 511 549 L 515 543 L 467 516 L 466 518 L 511 549"/>
  <line x1="466" y1="518" x2="467" y2="516"/>
  <path class="p3" d="M 563 570 L 569 559 L 519 536 L 515 543 L 563 570"/>
  <path class="p3" d="M 569 559 L 574 548 L 522 529 L 519 536 L 569 559"/>
  <path class="p3" d="M 515 543 L 519 536 L 469 513 L 467 516 L 515 543"/>
  <line x1="467" y1="516" x2="469" y2="513"/>
  <path class="p3" d="M 519 536 L 522 529 L 470 511 L 469 513 L 519 536"/>
  <line x1="469" y1="513" x2="470" y2="511"/>
  <path class="p3" d="M 679 586 L 686 565 L 632 551 L 627 567 L 679 586"/>
  <path class="p3" d="M 686 565 L 692 544 L 637 534 L 632 551 L 686 565"/>
  <path class="p3" d="M 627 567 L 632 551 L 579 537 L 574 548 L 627 567"/>
  <path class="p3" d="M 632 551 L 637 534 L 582 525 L 579 537 L 632 551"/>
  <path class="p3" d="M 692 544 L 695 522 L 639 517 L 637 534 L 692 544"/>
  <path class="p3" d="M 695 522 L 696 500 L 640 500 L 639 517 L 695 522"/>
  <path class="p3" d="M 637 534 L 639 517 L 583 512 L 582 525 L 637 534"/>
  <path class="p3" d="M 639 517 L 640 500 L 584 500 L 583 512 L 639 517"/>
  <path class="p3" d="M 574 548 L 579 537 L 525 522 L 522 529 L 574 548"/>
  <path class="p3" d="M 579 537 L 582 525 L 527 515 L 525 522 L 579 537"/>
  <path class="p3" d="M 522 529 L 525 522 L 471 508 L 470 511 L 522 529"/>
  <line x1="470" y1="511" x2="471" y2="508"/>
  <path class="p3" d="M 525 522 L 527 515 L 471 505 L 471 508 L 525 522"/>
  <line x1="471" y1="508" x2="471" y2="505"/>
  <path class="p3" d="M 582 525 L 583 512 L 528 508 L 527 515 L 582 525"/>
  <path class="p3" d="M 583 512 L 584 500 L 528 500 L 528 508 L 583 512"/>
  <path class="p3" d="M 527 515 L 528 508 L 472 503 L 471 505 L 527 515"/>
  <line x1="471" y1="505" x2="472" y2="503"/>
  <path class="p3" d="M 528 508 L 528 500 L 472 500 L 472 503 L 528 508"/>
  <line x1="472" y1="503" x2="472" y2="500"/>

</svg>