<svg width="1000" height="1000" xmlns="http://www.w3.org/2000/svg" version="1.1">


<!-- internal style sheet -->
<style type="text/css"><![CDATA[
 rect.background{fill:white}
 rect{fill:none; stroke:rgb(25,25,25); stroke-width:2}
 text{font-family:Helvetica; text-anchor:middle; fill:rgb(25,25,25)}
 line{stroke:rgb(25,25,25); stroke-width:4}
 path{fill:none; stroke:rgb(25,25,25); stroke-width:2}
 circle{fill:white; stroke:black; stroke-width:2}

 path.p0{fill:rgb(0,102,255); stroke:rgb(25,25,25); stroke-width:2}
 path.ps0{fill:rgb(0,77,191); stroke:rgb(20,20,20); stroke-width:2}
 rect.r0{fill:rgb(0,102,255); stroke:rgb(25,25,25); stroke-width:2}
 path.p1{fill:rgb(0,255,102); stroke:rgb(25,25,25); stroke-width:2}
 path.ps1{fill:rgb(0,191,77); stroke:rgb(20,20,20); stroke-width:2}
 rect.r1{fill:rgb(0,255,102); stroke:rgb(25,25,25); stroke-width:2}
 path.p2{fill:rgb(204,255,0); stroke:rgb(25,25,25); stroke-width:2}
 path.ps2{fill:rgb(153,191,0); stroke:rgb(20,20,20); stroke-width:2}
 rect.r2{fill:rgb(204,255,0); stroke:rgb(25,25,25); stroke-width:2}
 path.p3{fill:rgb(255,0,0); stroke:rgb(25,25,25); stroke-width:2}
 path.ps3{fill:rgb(191,0,0); stroke:rgb(20,20,20); stroke-width:2}
 rect.r3{fill:rgb(255,0,0); stroke:rgb(25,25,25); stroke-width:2}
]]></style>

 <rect class="background" width="1000" height="1000"/>
  <!-- cells -->
  <path class="p3" d="M 920 500 L 918 459 L 881 463 L 883 500 L 920 500"/>
  <line x1="920" y1="500" x2="918" y2="459"/>
  <path class="p3" d="M 918 459 L 912 418 L 876 427 L 881 463 L 918 459"/>
  <line x1="918" y1="459" x2="912" y2="418"/>
  <path class="p3" d="M 883 500 L 881 463 L 845 468 L 847 500 L 883 500"/>
  <path class="p3" d="M 881 463 L 876 427 L 840 436 L 845 468 L 881 463"/>
  <path class="p3" d="M 912 418 L 902 378 L 867 392 L 876 427 L 912 418"/>
  <line x1="912" y1="418" x2="902" y2="378"/>
  <path class="p3" d="M 902 378 L 888 339 L 855 357 L 867 392 L 902 378"/>
  <line x1="902" y1="378" x2="888" y2="339"/>
  <path class="p3" d="M 876 427 L 867 392 L 832 406 L 840 436 L 876 427"/>
  <path class="p3" d="M 867 392 L 855 357 L 822 375 L 832 406 L 867 392"/>
  <path class="p3" d="M 847 500 L 845 468 L 808 473 L 810 500 L 847 500"/>
  <path class="p3" d="M 845 468 L 840 436 L 804 446 L 808 473 L 845 468"/>
  <path class="p3" d="M 810 500 L 808 473 L 772 477 L 773 500 L 810 500"/>
  <path class="p3" d="M 808 473 L 804 446 L 769 455 L 772 477 L 808 473"/>
  <path class="p3" d="M 840 436 L 832 406 L 798 419 L 804 446 L 840 436"/>
  <path class="p3" d="M 832 406 L 822 375 L 789 394 L 798 419 L 832 406"/>
  <path class="p3" d="M 804 446 L 798 419 L 763 433 L 769 455 L 804 446"/>
  <path class="p3" d="M 798 419 L 789 394 L 755 412 L 763 433 L 798 419"/>
  <path class="p3" d="M 888 339 L 870 302 L 839 324 L 855 357 L 888 339"/>
  <line x1="888" y1="339" x2="870" y2="302"/>
  <path class="p3" d="M 870 302 L 849 267 L 820 293 L 839 324 L 870 302"/>
  <line x1="870" y1="302" x2="849" y2="267"/>
  <path class="p3" d="M 855 357 L 839 324 L 808 347 L 822 375 L 855 357"/>
  <path class="p3" d="M 839 324 L 820 293 L 792 319 L 808 347 L 839 324"/>
  <path class="p3" d="M 849 267 L 825 234 L 799 264 L 820 293 L 849 267"/>
  <line x1="849" y1="267" x2="825" y2="234"/>
  <path class="p3" d="M 825 234 L 797 203 L 774 236 L 799 264 L 825 234"/>
  <line x1="825" y1="234" x2="797" y2="203"/>
  <path class="p3" d="M 820 293 L 799 264 L 773 294 L 792 319 L 820 293"/>
  <path class="p3" d="M 799 264 L 774 236 L 751 270 L 773 294 L 799 264"/>
  <path class="p3" d="M 822 375 L 808 347 L 777 369 L 789 394 L 822 375"/>
  <path class="p3" d="M 808 347 L 792 319 L 763 345 L 777 369 L 808 347"/>
  <path class="p3" d="M 789 394 L 777 369 L 746 391 L 755 412 L 789 394"/>
  <path class="p3" d="M 777 369 L 763 345 L 734 372 L 746 391 L 777 369"/>
  <path class="p3" d="M 792 319 L 773 294 L 747 323 L 763 345 L 792 319"/>
  <path class="p3" d="M 773 294 L 751 270 L 728 303 L 747 323 L 773 294"/>
  <path class="p3" d="M 763 345 L 747 323 L 721 353 L 734 372 L 763 345"/>
  <path class="p3" d="M 747 323 L 728 303 L 705 337 L 721 353 L 747 323"/>
  <path class="p3" d="M 773 500 L 772 477 L 735 482 L 736 500 L 773 500"/>
  <path class="p3" d="M 772 477 L 769 455 L 733 464 L 735 482 L 772 477"/>
  <path class="p3" d="M 736 500 L 735 482 L 699 487 L 700 500 L 736 500"/>
  <path class="p3" d="M 735 482 L 733 464 L 697 473 L 699 487 L 735 482"/>
  <path class="p3" d="M 769 455 L 763 433 L 728 447 L 733 464 L 769 455"/>
  <path class="p3" d="M 763 433 L 755 412 L 722 430 L 728 447 L 763 433"/>
  <path class="p3" d="M 733 464 L 728 447 L 694 460 L 697 473 L 733 464"/>
  <path class="p3" d="M 728 447 L 722 430 L 689 448 L 694 460 L 728 447"/>
  <path class="p3" d="M 700 500 L 699 487 L 662 491 L 663 500 L 700 500"/>
  <path class="p3" d="M 699 487 L 697 473 L 661 483 L 662 491 L 699 487"/>
  <path class="p3" d="M 663 500 L 662 491 L 626 496 L 626 500 L 663 500"/>
  <line x1="626" y1="500" x2="626" y2="496"/>
  <path class="p3" d="M 662 491 L 661 483 L 625 492 L 626 496 L 662 491"/>
  <line x1="626" y1="496" x2="625" y2="492"/>
  <path class="p3" d="M 697 473 L 694 460 L 659 474 L 661 483 L 697 473"/>
  <path class="p3" d="M 694 460 L 689 448 L 656 466 L 659 474 L 694 460"/>
  <path class="p3" d="M 661 483 L 659 474 L 624 488 L 625 492 L 661 483"/>
  <line x1="625" y1="492" x2="624" y2="488"/>
  <path class="p3" d="M 659 474 L 656 466 L 623 484 L 624 488 L 659 474"/>
  <line x1="624" y1="488" x2="623" y2="484"/>
  <path class="p3" d="M 755 412 L 746 391 L 715 413 L 722 430 L 755 412"/>
  <path class="p3" d="M 746 391 L 734 372 L 705 398 L 715 413 L 746 391"/>
  <path class="p3" d="M 722 430 L 715 413 L 683 436 L 689 448 L 722 430"/>
  <path class="p3" d="M 715 413 L 705 398 L 676 424 L 683 436 L 715 413"/>
  <path class="p3" d="M 734 372 L 721 353 L 695 383 L 705 398 L 734 372"/>
  <path class="p3" d="M 721 353 L 705 337 L 682 370 L 695 383 L 721 353"/>
  <path class="p3" d="M 705 398 L 695 383 L 669 413 L 676 424 L 705 398"/>
  <path class="p3" d="M 695 383 L 682 370 L 660 403 L 669 413 L 695 383"/>
  <path class="p3" d="M 689 448 L 683 436 L 652 458 L 656 466 L 689 448"/>
  <path class="p3" d="M 683 436 L 676 424 L 648 450 L 652 458 L 683 436"/>
  <path class="p3" d="M 656 466 L 652 458 L 621 480 L 623 484 L 656 466"/>
  <line x1="623" y1="484" x2="621" y2="480"/>
  <path class="p3" d="M 652 458 L 648 450 L 619 477 L 621 480 L 652 458"/>
  <line x1="621" y1="480" x2="619" y2="477"/>
  <path class="p3" d="M 676 424 L 669 413 L 642 443 L 648 450 L 676 424"/>
  <path class="p3" d="M 669 413 L 660 403 L 637 437 L 642 443 L 669 413"/>
  <path class="p3" d="M 648 450 L 642 443 L 616 473 L 619 477 L 648 450"/>
  <line x1="619" y1="477" x2="616" y2="473"/>
  <path class="p3" d="M 642 443 L 637 437 L 614 470 L 616 473 L 642 443"/>
  <line x1="616" y1="473" x2="614" y2="470"/>
  <path class="p3" d="M 797 203 L 766 175 L 747 212 L 774 236 L 797 203"/>
  <line x1="797" y1="203" x2="766" y2="175"/>
  <path class="p3" d="M 766 175 L 733 151 L 718 190 L 747 212 L 766 175"/>
  <line x1="766" y1="175" x2="733" y2="151"/>
  <path class="p3" d="M 774 236 L 747 212 L 727 248 L 751 270 L 774 236"/>
  <path class="p3" d="M 747 212 L 718 190 L 702 229 L 727 248 L 747 212"/>
  <path class="p3" d="M 733 151 L 698 130 L 686 171 L 718 190 L 733 151"/>
  <line x1="733" y1="151" x2="698" y2="130"/>
  <path class="p3" d="M 698 130 L 661 112 L 653 156 L 686 171 L 698 130"/>
  <line x1="698" y1="130" x2="661" y2="112"/>
  <path class="p3" d="M 718 190 L 686 171 L 674 213 L 702 229 L 718 190"/>
  <path class="p3" d="M 686 171 L 653 156 L 646 199 L 674 213 L 686 171"/>
  <path class="p3" d="M 751 270 L 727 248 L 708 285 L 728 303 L 751 270"/>
  <path class="p3" d="M 727 248 L 702 229 L 686 269 L 708 285 L 727 248"/>
  <path class="p3" d="M 728 303 L 708 285 L 689 321 L 705 337 L 728 303"/>
  <path class="p3" d="M 708 285 L 686 269 L 670 308 L 689 321 L 708 285"/>
  <path class="p3" d="M 702 229 L 674 213 L 663 255 L 686 269 L 702 229"/>
  <path class="p3" d="M 674 213 L 646 199 L 638 243 L 663 255 L 674 213"/>
  <path class="p3" d="M 686 269 L 663 255 L 651 296 L 670 308 L 686 269"/>
  <path class="p3" d="M 663 255 L 638 243 L 630 287 L 651 296 L 663 255"/>
  <path class="p3" d="M 661 112 L 622 98 L 619 143 L 653 156 L 661 112"/>
  <line x1="661" y1="112" x2="622" y2="98"/>
  <path class="p3" d="M 622 98 L 582 88 L 583 134 L 619 143 L 622 98"/>
  <line x1="622" y1="98" x2="582" y2="88"/>
  <path class="p3" d="M 653 156 L 619 143 L 615 189 L 646 199 L 653 156"/>
  <path class="p3" d="M 619 143 L 583 134 L 585 181 L 615 189 L 619 143"/>
  <path class="p3" d="M 582 88 L 541 82 L 547 129 L 583 134 L 582 88"/>
  <line x1="582" y1="88" x2="541" y2="82"/>
  <path class="p3" d="M 541 82 L 500 80 L 510 127 L 547 129 L 541 82"/>
  <line x1="541" y1="82" x2="500" y2="80"/>
  <path class="p3" d="M 583 134 L 547 129 L 553 176 L 585 181 L 583 134"/>
  <path class="p3" d="M 547 129 L 510 127 L 521 174 L 553 176 L 547 129"/>
  <path class="p3" d="M 646 199 L 615 189 L 612 234 L 638 243 L 646 199"/>
  <path class="p3" d="M 615 189 L 585 181 L 586 227 L 612 234 L 615 189"/>
  <path class="p3" d="M 638 243 L 612 234 L 609 279 L 630 287 L 638 243"/>
  <path class="p3" d="M 612 234 L 586 227 L 587 273 L 609 279 L 612 234"/>
  <path class="p3" d="M 585 181 L 553 176 L 559 223 L 586 227 L 585 181"/>
  <path class="p3" d="M 553 176 L 521 174 L 531 222 L 559 223 L 553 176"/>
  <path class="p3" d="M 586 227 L 559 223 L 565 270 L 587 273 L 586 227"/>
  <path class="p3" d="M 559 223 L 531 222 L 542 269 L 565 270 L 559 223"/>
  <path class="p3" d="M 705 337 L 689 321 L 669 358 L 682 370 L 705 337"/>
  <path class="p3" d="M 689 321 L 670 308 L 655 347 L 669 358 L 689 321"/>
  <path class="p3" d="M 682 370 L 669 358 L 650 394 L 660 403 L 682 370"/>
  <path class="p3" d="M 669 358 L 655 347 L 639 387 L 650 394 L 669 358"/>
  <path class="p3" d="M 670 308 L 651 296 L 639 338 L 655 347 L 670 308"/>
  <path class="p3" d="M 651 296 L 630 287 L 623 330 L 639 338 L 651 296"/>
  <path class="p3" d="M 655 347 L 639 338 L 627 380 L 639 387 L 655 347"/>
  <path class="p3" d="M 639 338 L 623 330 L 615 374 L 627 380 L 639 338"/>
  <path class="p3" d="M 660 403 L 650 394 L 630 431 L 637 437 L 660 403"/>
  <path class="p3" d="M 650 394 L 639 387 L 623 426 L 630 431 L 650 394"/>
  <path class="p3" d="M 637 437 L 630 431 L 611 468 L 614 470 L 637 437"/>
  <line x1="614" y1="470" x2="611" y2="468"/>
  <path class="p3" d="M 630 431 L 623 426 L 607 465 L 611 468 L 630 431"/>
  <line x1="611" y1="468" x2="607" y2="465"/>
  <path class="p3" d="M 639 387 L 627 380 L 616 421 L 623 426 L 639 387"/>
  <path class="p3" d="M 627 380 L 615 374 L 608 418 L 616 421 L 627 380"/>
  <path class="p3" d="M 623 426 L 616 421 L 604 463 L 607 465 L 623 426"/>
  <line x1="607" y1="465" x2="604" y2="463"/>
  <path class="p3" d="M 616 421 L 608 418 L 600 461 L 604 463 L 616 421"/>
  <line x1="604" y1="463" x2="600" y2="461"/>
  <path class="p3" d="M 630 287 L 609 279 L 606 324 L 623 330 L 630 287"/>
  <path class="p3" d="M 609 279 L 587 273 L 588 320 L 606 324 L 609 279"/>
  <path class="p3" d="M 623 330 L 606 324 L 603 369 L 615 374 L 623 330"/>
  <path class="p3" d="M 606 324 L 588 320 L 590 366 L 603 369 L 606 324"/>
  <path class="p3" d="M 587 273 L 565 270 L 571 317 L 588 320 L 587 273"/>
  <path class="p3" d="M 565 270 L 542 269 L 552 316 L 571 317 L 565 270"/>
  <path class="p3" d="M 588 320 L 571 317 L 576 364 L 590 366 L 588 320"/>
  <path class="p3" d="M 571 317 L 552 316 L 563 363 L 576 364 L 571 317"/>
  <path class="p3" d="M 615 374 L 603 369 L 599 415 L 608 418 L 615 374"/>
  <path class="p3" d="M 603 369 L 590 366 L 591 412 L 599 415 L 603 369"/>
  <path class="p3" d="M 608 418 L 599 415 L 596 460 L 600 461 L 608 418"/>
  <line x1="600" y1="461" x2="596" y2="460"/>
  <path class="p3" d="M 599 415 L 591 412 L 592 459 L 596 460 L 599 415"/>
  <line x1="596" y1="460" x2="592" y2="459"/>
  <path class="p3" d="M 590 366 L 576 364 L 582 411 L 591 412 L 590 366"/>
  <path class="p3" d="M 576 364 L 563 363 L 573 411 L 582 411 L 576 364"/>
  <path class="p3" d="M 591 412 L 582 411 L 588 458 L 592 459 L 591 412"/>
  <line x1="592" y1="459" x2="588" y2="458"/>
  <path class="p3" d="M 582 411 L 573 411 L 584 458 L 588 458 L 582 411"/>
  <line x1="588" y1="458" x2="584" y2="458"/>
  <path class="p3" d="M 500 80 L 459 82 L 474 129 L 510 127 L 500 80"/>
  <line x1="500" y1="80" x2="459" y2="82"/>
  <path class="p3" d="M 459 82 L 418 88 L 438 134 L 474 129 L 459 82"/>
  <line x1="459" y1="82" x2="418" y2="88"/>
  <path class="p3" d="M 510 127 L 474 129 L 489 176 L 521 174 L 510 127"/>
  <path class="p3" d="M 474 129 L 438 134 L 457 181 L 489 176 L 474 129"/>
  <path class="p3" d="M 418 88 L 378 98 L 402 143 L 438 134 L 418 88"/>
  <line x1="418" y1="88" x2="378" y2="98"/>
  <path class="p3" d="M 378 98 L 339 112 L 368 156 L 402 143 L 378 98"/>
  <line x1="378" y1="98" x2="339" y2="112"/>
  <path class="p3" d="M 438 134 L 402 143 L 427 189 L 457 181 L 438 134"/>
  <path class="p3" d="M 402 143 L 368 156 L 396 199 L 427 189 L 402 143"/>
  <path class="p3" d="M 521 174 L 489 176 L 504 223 L 531 222 L 521 174"/>
  <path class="p3" d="M 489 176 L 457 181 L 477 227 L 504 223 L 489 176"/>
  <path class="p3" d="M 531 222 L 504 223 L 519 270 L 542 269 L 531 222"/>
  <path class="p3" d="M 504 223 L 477 227 L 497 273 L 519 270 L 504 223"/>
  <path class="p3" d="M 457 181 L 427 189 L 451 234 L 477 227 L 457 181"/>
  <path class="p3" d="M 427 189 L 396 199 L 425 243 L 451 234 L 427 189"/>
  <path class="p3" d="M 477 227 L 451 234 L 475 279 L 497 273 L 477 227"/>
  <path class="p3" d="M 451 234 L 425 243 L 454 287 L 475 279 L 451 234"/>
  <path class="p3" d="M 339 112 L 302 130 L 335 171 L 368 156 L 339 112"/>
  <line x1="339" y1="112" x2="302" y2="130"/>
  <path class="p3" d="M 302 130 L 267 151 L 303 190 L 335 171 L 302 130"/>
  <line x1="302" y1="130" x2="267" y2="151"/>
  <path class="p3" d="M 368 156 L 335 171 L 368 213 L 396 199 L 368 156"/>
  <path class="p3" d="M 335 171 L 303 190 L 340 229 L 368 213 L 335 171"/>
  <path class="p3" d="M 267 151 L 234 175 L 274 212 L 303 190 L 267 151"/>
  <line x1="267" y1="151" x2="234" y2="175"/>
  <path class="p3" d="M 234 175 L 203 203 L 247 236 L 274 212 L 234 175"/>
  <line x1="234" y1="175" x2="203" y2="203"/>
  <path class="p3" d="M 303 190 L 274 212 L 315 248 L 340 229 L 303 190"/>
  <path class="p3" d="M 274 212 L 247 236 L 291 270 L 315 248 L 274 212"/>
  <path class="p3" d="M 396 199 L 368 213 L 400 255 L 425 243 L 396 199"/>
  <path class="p3" d="M 368 213 L 340 229 L 377 269 L 400 255 L 368 213"/>
  <path class="p3" d="M 425 243 L 400 255 L 433 296 L 454 287 L 425 243"/>
  <path class="p3" d="M 400 255 L 377 269 L 414 308 L 433 296 L 400 255"/>
  <path class="p3" d="M 340 229 L 315 248 L 355 285 L 377 269 L 340 229"/>
  <path class="p3" d="M 315 248 L 291 270 L 335 303 L 355 285 L 315 248"/>
  <path class="p3" d="M 377 269 L 355 285 L 395 321 L 414 308 L 377 269"/>
  <path class="p3" d="M 355 285 L 335 303 L 379 337 L 395 321 L 355 285"/>
  <path class="p3" d="M 542 269 L 519 270 L 534 317 L 552 316 L 542 269"/>
  <path class="p3" d="M 519 270 L 497 273 L 517 320 L 534 317 L 519 270"/>
  <path class="p3" d="M 552 316 L 534 317 L 550 364 L 563 363 L 552 316"/>
  <path class="p3" d="M 534 317 L 517 320 L 536 366 L 550 364 L 534 317"/>
  <path class="p3" d="M 497 273 L 475 279 L 499 324 L 517 320 L 497 273"/>
  <path class="p3" d="M 475 279 L 454 287 L 482 330 L 499 324 L 475 279"/>
  <path class="p3" d="M 517 320 L 499 324 L 523 369 L 536 366 L 517 320"/>
  <path class="p3" d="M 499 324 L 482 330 L 511 374 L 523 369 L 499 324"/>
  <path class="p3" d="M 563 363 L 550 364 L 565 411 L 573 411 L 563 363"/>
  <path class="p3" d="M 550 364 L 536 366 L 556 412 L 565 411 L 550 364"/>
  <path class="p3" d="M 573 411 L 565 411 L 580 458 L 584 458 L 573 411"/>
  <line x1="584" y1="458" x2="580" y2="458"/>
  <path class="p3" d="M 565 411 L 556 412 L 576 459 L 580 458 L 565 411"/>
  <line x1="580" y1="458" x2="576" y2="459"/>
  <path class="p3" d="M 536 366 L 523 369 L 548 415 L 556 412 L 536 366"/>
  <path class="p3" d="M 523 369 L 511 374 L 539 418 L 548 415 L 523 369"/>
  <path class="p3" d="M 556 412 L 548 415 L 572 460 L 576 459 L 556 412"/>
  <line x1="576" y1="459" x2="572" y2="460"/>
  <path class="p3" d="M 548 415 L 539 418 L 568 461 L 572 460 L 548 415"/>
  <line x1="572" y1="460" x2="568" y2="461"/>
  <path class="p3" d="M 454 287 L 433 296 L 466 338 L 482 330 L 454 287"/>
  <path class="p3" d="M 433 296 L 414 308 L 450 347 L 466 338 L 433 296"/>
  <path class="p3" d="M 482 330 L 466 338 L 499 380 L 511 374 L 482 330"/>
  <path class="p3" d="M 466 338 L 450 347 L 487 387 L 499 380 L 466 338"/>
  <path class="p3" d="M 414 308 L 395 321 L 436 358 L 450 347 L 414 308"/>
  <path class="p3" d="M 395 321 L 379 337 L 423 370 L 436 358 L 395 321"/>
  <path class="p3" d="M 450 347 L 436 358 L 476 394 L 487 387 L 450 347"/>
  <path class="p3" d="M 436 358 L 423 370 L 466 403 L 476 394 L 436 358"/>
  <path class="p3" d="M 511 374 L 499 380 L 531 421 L 539 418 L 511 374"/>
  <path class="p3" d="M 499 380 L 487 387 L 524 426 L 531 421 L 499 380"/>
  <path class="p3" d="M 539 418 L 531 421 L 564 463 L 568 461 L 539 418"/>
  <line x1="568" y1="461" x2="564" y2="463"/>
  <path class="p3" d="M 531 421 L 524 426 L 561 465 L 564 463 L 531 421"/>
  <line x1="564" y1="463" x2="561" y2="465"/>
  <path class="p3" d="M 487 387 L 476 394 L 517 431 L 524 426 L 487 387"/>
  <path class="p3" d="M 476 394 L 466 403 L 510 437 L 517 431 L 476 394"/>
  <path class="p3" d="M 524 426 L 517 431 L 557 468 L 561 465 L 524 426"/>
  <line x1="561" y1="465" x2="557" y2="468"/>
  <path class="p3" d="M 517 431 L 510 437 L 554 470 L 557 468 L 517 431"/>
  <line x1="557" y1="468" x2="554" y2="470"/>
  <path class="p3" d="M 203 203 L 175 234 L 222 264 L 247 236 L 203 203"/>
  <line x1="203" y1="203" x2="175" y2="234"/>
  <path class="p3" d="M 175 234 L 151 267 L 201 293 L 222 264 L 175 234"/>
  <line x1="175" y1="234" x2="151" y2="267"/>
  <path class="p3" d="M 247 236 L 222 264 L 269 294 L 291 270 L 247 236"/>
  <path class="p3" d="M 222 264 L 201 293 L 250 319 L 269 294 L 222 264"/>
  <path class="p3" d="M 151 267 L 130 302 L 182 324 L 201 293 L 151 267"/>
  <line x1="151" y1="267" x2="130" y2="302"/>
  <path class="p3" d="M 130 302 L 112 339 L 166 357 L 182 324 L 130 302"/>
  <line x1="130" y1="302" x2="112" y2="339"/>
  <path class="p3" d="M 201 293 L 182 324 L 234 347 L 250 319 L 201 293"/>
  <path class="p3" d="M 182 324 L 166 357 L 220 375 L 234 347 L 182 324"/>
  <path class="p3" d="M 291 270 L 269 294 L 316 323 L 335 303 L 291 270"/>
  <path class="p3" d="M 269 294 L 250 319 L 300 345 L 316 323 L 269 294"/>
  <path class="p3" d="M 335 303 L 316 323 L 363 353 L 379 337 L 335 303"/>
  <path class="p3" d="M 316 323 L 300 345 L 350 372 L 363 353 L 316 323"/>
  <path class="p3" d="M 250 319 L 234 347 L 286 369 L 300 345 L 250 319"/>
  <path class="p3" d="M 234 347 L 220 375 L 274 394 L 286 369 L 234 347"/>
  <path class="p3" d="M 300 345 L 286 369 L 338 391 L 350 372 L 300 345"/>
  <path class="p3" d="M 286 369 L 274 394 L 329 412 L 338 391 L 286 369"/>
  <path class="p3" d="M 112 339 L 98 378 L 154 392 L 166 357 L 112 339"/>
  <line x1="112" y1="339" x2="98" y2="378"/>
  <path class="p3" d="M 98 378 L 88 418 L 145 427 L 154 392 L 98 378"/>
  <line x1="98" y1="378" x2="88" y2="418"/>
  <path class="p3" d="M 166 357 L 154 392 L 210 406 L 220 375 L 166 357"/>
  <path class="p3" d="M 154 392 L 145 427 L 202 436 L 210 406 L 154 392"/>
  <path class="p3" d="M 88 418 L 82 459 L 140 463 L 145 427 L 88 418"/>
  <line x1="88" y1="418" x2="82" y2="459"/>
  <path class="p3" d="M 82 459 L 80 500 L 138 500 L 140 463 L 82 459"/>
  <line x1="82" y1="459" x2="80" y2="500"/>
  <path class="p3" d="M 145 427 L 140 463 L 197 468 L 202 436 L 145 427"/>
  <path class="p3" d="M 140 463 L 138 500 L 195 500 L 197 468 L 140 463"/>
  <path class="p3" d="M 220 375 L 210 406 L 265 419 L 274 394 L 220 375"/>
  <path class="p3" d="M 210 406 L 202 436 L 259 446 L 265 419 L 210 406"/>
  <path class="p3" d="M 274 394 L 265 419 L 321 433 L 329 412 L 274 394"/>
  <path class="p3" d="M 265 419 L 259 446 L 315 455 L 321 433 L 265 419"/>
  <path class="p3" d="M 202 436 L 197 468 L 255 473 L 259 446 L 202 436"/>
  <path class="p3" d="M 197 468 L 195 500 L 253 500 L 255 473 L 197 468"/>
  <path class="p3" d="M 259 446 L 255 473 L 312 477 L 315 455 L 259 446"/>
  <path class="p3" d="M 255 473 L 253 500 L 311 500 L 312 477 L 255 473"/>
  <path class="p3" d="M 379 337 L 363 353 L 410 383 L 423 370 L 379 337"/>
  <path class="p3" d="M 363 353 L 350 372 L 400 398 L 410 383 L 363 353"/>
  <path class="p3" d="M 423 370 L 410 383 L 457 413 L 466 403 L 423 370"/>
  <path class="p3" d="M 410 383 L 400 398 L 450 424 L 457 413 L 410 383"/>
  <path class="p3" d="M 350 372 L 338 391 L 390 413 L 400 398 L 350 372"/>
  <path class="p3" d="M 338 391 L 329 412 L 383 430 L 390 413 L 338 391"/>
  <path class="p3" d="M 400 398 L 390 413 L 443 436 L 450 424 L 400 398"/>
  <path class="p3" d="M 390 413 L 383 430 L 437 448 L 443 436 L 390 413"/>
  <path class="p3" d="M 466 403 L 457 413 L 505 443 L 510 437 L 466 403"/>
  <path class="p3" d="M 457 413 L 450 424 L 499 450 L 505 443 L 457 413"/>
  <path class="p3" d="M 510 437 L 505 443 L 552 473 L 554 470 L 510 437"/>
  <line x1="554" y1="470" x2="552" y2="473"/>
  <path class="p3" d="M 505 443 L 499 450 L 549 477 L 552 473 L 505 443"/>
  <line x1="552" y1="473" x2="549" y2="477"/>
  <path class="p3" d="M 450 424 L 443 436 L 495 458 L 499 450 L 450 424"/>
  <path class="p3" d="M 443 436 L 437 448 L 491 466 L 495 458 L 443 436"/>
  <path class="p3" d="M 499 450 L 495 458 L 547 480 L 549 477 L 499 450"/>
  <line x1="549" y1="477" x2="547" y2="480"/>
  <path class="p3" d="M 495 458 L 491 466 L 545 484 L 547 480 L 495 458"/>
  <line x1="547" y1="480" x2="545" y2="484"/>
  <path class="p3" d="M 329 412 L 321 433 L 377 447 L 383 430 L 329 412"/>
  <path class="p3" d="M 321 433 L 315 455 L 372 464 L 377 447 L 321 433"/>
  <path class="p3" d="M 383 430 L 377 447 L 432 460 L 437 448 L 383 430"/>
  <path class="p3" d="M 377 447 L 372 464 L 429 473 L 432 460 L 377 447"/>
  <path class="p3" d="M 315 455 L 312 477 L 370 482 L 372 464 L 315 455"/>
  <path class="p3" d="M 312 477 L 311 500 L 369 500 L 370 482 L 312 477"/>
  <path class="p3" d="M 372 464 L 370 482 L 427 487 L 429 473 L 372 464"/>
  <path class="p3" d="M 370 482 L 369 500 L 426 500 L 427 487 L 370 482"/>
  <path class="p3" d="M 437 448 L 432 460 L 488 474 L 491 466 L 437 448"/>
  <path class="p3" d="M 432 460 L 429 473 L 486 483 L 488 474 L 432 460"/>
  <path class="p3" d="M 491 466 L 488 474 L 544 488 L 545 484 L 491 466"/>
  <line x1="545" y1="484" x2="544" y2="488"/>
  <path class="p3" d="M 488 474 L 486 483 L 543 492 L 544 488 L 488 474"/>
  <line x1="544" y1="488" x2="543" y2="492"/>
  <path class="p3" d="M 429 473 L 427 487 L 485 491 L 486 483 L 429 473"/>
  <path class="p3" d="M 427 487 L 426 500 L 484 500 L 485 491 L 427 487"/>
  <path class="p3" d="M 486 483 L 485 491 L 542 496 L 543 492 L 486 483"/>
  <line x1="543" y1="492" x2="542" y2="496"/>
  <path class="p3" d="M 485 491 L 484 500 L 542 500 L 542 496 L 485 491"/>
  <line x1="542" y1="496" x2="542" y2="500"/>
  <path class="p3" d="M 80 500 L 82 541 L 140 537 L 138 500 L 80 500"/>
  <line x1="80" y1="500" x2="82" y2="541"/>
  <path class="p3" d="M 82 541 L 88 582 L 145 573 L 140 537 L 82 541"/>
  <line x1="82" y1="541" x2="88" y2="582"/>
  <path class="p3" d="M 138 500 L 140 537 L 197 532 L 195 500 L 138 500"/>
  <path class="p3" d="M 140 537 L 145 573 L 202 564 L 197 532 L 140 537"/>
  <path class="p3" d="M 88 582 L 98 622 L 154 608 L 145 573 L 88 582"/>
  <line x1="88" y1="582" x2="98" y2="622"/>
  <path class="p3" d="M 98 622 L 112 661 L 166 643 L 154 608 L 98 622"/>
  <line x1="98" y1="622" x2="112" y2="661"/>
  <path class="p3" d="M 145 573 L 154 608 L 210 594 L 202 564 L 145 573"/>
  <path class="p3" d="M 154 608 L 166 643 L 220 625 L 210 594 L 154 608"/>
  <path class="p3" d="M 195 500 L 197 532 L 255 527 L 253 500 L 195 500"/>
  <path class="p3" d="M 197 532 L 202 564 L 259 554 L 255 527 L 197 532"/>
  <path class="p3" d="M 253 500 L 255 527 L 312 523 L 311 500 L 253 500"/>
  <path class="p3" d="M 255 527 L 259 554 L 315 545 L 312 523 L 255 527"/>
  <path class="p3" d="M 202 564 L 210 594 L 265 581 L 259 554 L 202 564"/>
  <path class="p3" d="M 210 594 L 220 625 L 274 606 L 265 581 L 210 594"/>
  <path class="p3" d="M 259 554 L 265 581 L 321 567 L 315 545 L 259 554"/>
  <path class="p3" d="M 265 581 L 274 606 L 329 588 L 321 567 L 265 581"/>
  <path class="p3" d="M 112 661 L 130 698 L 182 676 L 166 643 L 112 661"/>
  <line x1="112" y1="661" x2="130" y2="698"/>
  <path class="p3" d="M 130 698 L 151 733 L 201 707 L 182 676 L 130 698"/>
  <line x1="130" y1="698" x2="151" y2="733"/>
  <path class="p3" d="M 166 643 L 182 676 L 234 653 L 220 625 L 166 643"/>
  <path class="p3" d="M 182 676 L 201 707 L 250 681 L 234 653 L 182 676"/>
  <path class="p3" d="M 151 733 L 175 766 L 222 736 L 201 707 L 151 733"/>
  <line x1="151" y1="733" x2="175" y2="766"/>
  <path class="p3" d="M 175 766 L 203 797 L 247 764 L 222 736 L 175 766"/>
  <line x1="175" y1="766" x2="203" y2="797"/>
  <path class="p3" d="M 201 707 L 222 736 L 269 706 L 250 681 L 201 707"/>
  <path class="p3" d="M 222 736 L 247 764 L 291 730 L 269 706 L 222 736"/>
  <path class="p3" d="M 220 625 L 234 653 L 286 631 L 274 606 L 220 625"/>
  <path class="p3" d="M 234 653 L 250 681 L 300 655 L 286 631 L 234 653"/>
  <path class="p3" d="M 274 606 L 286 631 L 338 609 L 329 588 L 274 606"/>
  <path class="p3" d="M 286 631 L 300 655 L 350 628 L 338 609 L 286 631"/>
  <path class="p3" d="M 250 681 L 269 706 L 316 677 L 300 655 L 250 681"/>
  <path class="p3" d="M 269 706 L 291 730 L 335 697 L 316 677 L 269 706"/>
  <path class="p3" d="M 300 655 L 316 677 L 363 647 L 350 628 L 300 655"/>
  <path class="p3" d="M 316 677 L 335 697 L 379 663 L 363 647 L 316 677"/>
  <path class="p3" d="M 311 500 L 312 523 L 370 518 L 369 500 L 311 500"/>
  <path class="p3" d="M 312 523 L 315 545 L 372 536 L 370 518 L 312 523"/>
  <path class="p3" d="M 369 500 L 370 518 L 427 513 L 426 500 L 369 500"/>
  <path class="p3" d="M 370 518 L 372 536 L 429 527 L 427 513 L 370 518"/>
  <path class="p3" d="M 315 545 L 321 567 L 377 553 L 372 536 L 315 545"/>
  <path class="p3" d="M 321 567 L 329 588 L 383 570 L 377 553 L 321 567"/>
  <path class="p3" d="M 372 536 L 377 553 L 432 540 L 429 527 L 372 536"/>
  <path class="p3" d="M 377 553 L 383 570 L 437 552 L 432 540 L 377 553"/>
  <path class="p3" d="M 426 500 L 427 513 L 485 509 L 484 500 L 426 500"/>
  <path class="p3" d="M 427 513 L 429 527 L 486 517 L 485 509 L 427 513"/>
  <path class="p3" d="M 484 500 L 485 509 L 542 504 L 542 500 L 484 500"/>
  <line x1="542" y1="500" x2="542" y2="504"/>
  <path class="p3" d="M 485 509 L 486 517 L 543 508 L 542 504 L 485 509"/>
  <line x1="542" y1="504" x2="543" y2="508"/>
  <path class="p3" d="M 429 527 L 432 540 L 488 526 L 486 517 L 429 527"/>
  <path class="p3" d="M 432 540 L 437 552 L 491 534 L 488 526 L 432 540"/>
  <path class="p3" d="M 486 517 L 488 526 L 544 512 L 543 508 L 486 517"/>
  <line x1="543" y1="508" x2="544" y2="512"/>
  <path class="p3" d="M 488 526 L 491 534 L 545 516 L 544 512 L 488 526"/>
  <line x1="544" y1="512" x2="545" y2="516"/>
  <path class="p3" d="M 329 588 L 338 609 L 390 587 L 383 570 L 329 588"/>
  <path class="p3" d="M 338 609 L 350 628 L 400 602 L 390 587 L 338 609"/>
  <path class="p3" d="M 383 570 L 390 587 L 443 564 L 437 552 L 383 570"/>
  <path class="p3" d="M 390 587 L 400 602 L 450 576 L 443 564 L 390 587"/>
  <path class="p3" d="M 350 628 L 363 647 L 410 617 L 400 602 L 350 628"/>
  <path class="p3" d="M 363 647 L 379 663 L 423 630 L 410 617 L 363 647"/>
  <path class="p3" d="M 400 602 L 410 617 L 457 587 L 450 576 L 400 602"/>
  <path class="p3" d="M 410 617 L 423 630 L 466 597 L 457 587 L 410 617"/>
  <path class="p3" d="M 437 552 L 443 564 L 495 542 L 491 534 L 437 552"/>
  <path class="p3" d="M 443 564 L 450 576 L 499 550 L 495 542 L 443 564"/>
  <path class="p3" d="M 491 534 L 495 542 L 547 520 L 545 516 L 491 534"/>
  <line x1="545" y1="516" x2="547" y2="520"/>
  <path class="p3" d="M 495 542 L 499 550 L 549 523 L 547 520 L 495 542"/>
  <line x1="547" y1="520" x2="549" y2="523"/>
  <path class="p3" d="M 450 576 L 457 587 L 505 557 L 499 550 L 450 576"/>
  <path class="p3" d="M 457 587 L 466 597 L 510 563 L 505 557 L 457 587"/>
  <path class="p3" d="M 499 550 L 505 557 L 552 527 L 549 523 L 499 550"/>
  <line x1="549" y1="523" x2="552" y2="527"/>
  <path class="p3" d="M 505 557 L 510 563 L 554 530 L 552 527 L 505 557"/>
  <line x1="552" y1="527" x2="554" y2="530"/>
  <path class="p3" d="M 203 797 L 234 825 L 274 788 L 247 764 L 203 797"/>
  <line x1="203" y1="797" x2="234" y2="825"/>
  <path class="p3" d="M 234 825 L 267 849 L 303 810 L 274 788 L 234 825"/>
  <line x1="234" y1="825" x2="267" y2="849"/>
  <path class="p3" d="M 247 764 L 274 788 L 315 752 L 291 730 L 247 764"/>
  <path class="p3" d="M 274 788 L 303 810 L 340 771 L 315 752 L 274 788"/>
  <path class="p3" d="M 267 849 L 302 870 L 335 829 L 303 810 L 267 849"/>
  <line x1="267" y1="849" x2="302" y2="870"/>
  <path class="p3" d="M 302 870 L 339 888 L 368 844 L 335 829 L 302 870"/>
  <line x1="302" y1="870" x2="339" y2="888"/>
  <path class="p3" d="M 303 810 L 335 829 L 368 787 L 340 771 L 303 810"/>
  <path class="p3" d="M 335 829 L 368 844 L 396 801 L 368 787 L 335 829"/>
  <path class="p3" d="M 291 730 L 315 752 L 355 715 L 335 697 L 291 730"/>
  <path class="p3" d="M 315 752 L 340 771 L 377 731 L 355 715 L 315 752"/>
  <path class="p3" d="M 335 697 L 355 715 L 395 679 L 379 663 L 335 697"/>
  <path class="p3" d="M 355 715 L 377 731 L 414 692 L 395 679 L 355 715"/>
  <path class="p3" d="M 340 771 L 368 787 L 400 745 L 377 731 L 340 771"/>
  <path class="p3" d="M 368 787 L 396 801 L 425 757 L 400 745 L 368 787"/>
  <path class="p3" d="M 377 731 L 400 745 L 433 704 L 414 692 L 377 731"/>
  <path class="p3" d="M 400 745 L 425 757 L 454 713 L 433 704 L 400 745"/>
  <path class="p3" d="M 339 888 L 378 902 L 402 857 L 368 844 L 339 888"/>
  <line x1="339" y1="888" x2="378" y2="902"/>
  <path class="p3" d="M 378 902 L 418 912 L 438 866 L 402 857 L 378 902"/>
  <line x1="378" y1="902" x2="418" y2="912"/>
  <path class="p3" d="M 368 844 L 402 857 L 427 811 L 396 801 L 368 844"/>
  <path class="p3" d="M 402 857 L 438 866 L 457 819 L 427 811 L 402 857"/>
  <path class="p3" d="M 418 912 L 459 918 L 474 871 L 438 866 L 418 912"/>
  <line x1="418" y1="912" x2="459" y2="918"/>
  <path class="p3" d="M 459 918 L 500 920 L 510 873 L 474 871 L 459 918"/>
  <line x1="459" y1="918" x2="500" y2="920"/>
  <path class="p3" d="M 438 866 L 474 871 L 489 824 L 457 819 L 438 866"/>
  <path class="p3" d="M 474 871 L 510 873 L 521 826 L 489 824 L 474 871"/>
  <path class="p3" d="M 396 801 L 427 811 L 451 766 L 425 757 L 396 801"/>
  <path class="p3" d="M 427 811 L 457 819 L 477 773 L 451 766 L 427 811"/>
  <path class="p3" d="M 425 757 L 451 766 L 475 721 L 454 713 L 425 757"/>
  <path class="p3" d="M 451 766 L 477 773 L 497 727 L 475 721 L 451 766"/>
  <path class="p3" d="M 457 819 L 489 824 L 504 777 L 477 773 L 457 819"/>
  <path class="p3" d="M 489 824 L 521 826 L 531 778 L 504 777 L 489 824"/>
  <path class="p3" d="M 477 773 L 504 777 L 519 730 L 497 727 L 477 773"/>
  <path class="p3" d="M 504 777 L 531 778 L 542 731 L 519 730 L 504 777"/>
  <path class="p3" d="M 379 663 L 395 679 L 436 642 L 423 630 L 379 663"/>
  <path class="p3" d="M 395 679 L 414 692 L 450 653 L 436 642 L 395 679"/>
  <path class="p3" d="M 423 630 L 436 642 L 476 606 L 466 597 L 423 630"/>
  <path class="p3" d="M 436 642 L 450 653 L 487 613 L 476 606 L 436 642"/>
  <path class="p3" d="M 414 692 L 433 704 L 466 662 L 450 653 L 414 692"/>
  <path class="p3" d="M 433 704 L 454 713 L 482 670 L 466 662 L 433 704"/>
  <path class="p3" d="M 450 653 L 466 662 L 499 620 L 487 613 L 450 653"/>
  <path class="p3" d="M 466 662 L 482 670 L 511 626 L 499 620 L 466 662"/>
  <path class="p3" d="M 466 597 L 476 606 L 517 569 L 510 563 L 466 597"/>
  <path class="p3" d="M 476 606 L 487 613 L 524 574 L 517 569 L 476 606"/>
  <path class="p3" d="M 510 563 L 517 569 L 557 532 L 554 530 L 510 563"/>
  <line x1="554" y1="530" x2="557" y2="532"/>
  <path class="p3" d="M 517 569 L 524 574 L 561 535 L 557 532 L 517 569"/>
  <line x1="557" y1="532" x2="561" y2="535"/>
  <path class="p3" d="M 487 613 L 499 620 L 531 579 L 524 574 L 487 613"/>
  <path class="p3" d="M 499 620 L 511 626 L 539 582 L 531 579 L 499 620"/>
  <path class="p3" d="M 524 574 L 531 579 L 564 537 L 561 535 L 524 574"/>
  <line x1="561" y1="535" x2="564" y2="537"/>
  <path class="p3" d="M 531 579 L 539 582 L 568 539 L 564 537 L 531 579"/>
  <line x1="564" y1="537" x2="568" y2="539"/>
  <path class="p3" d="M 454 713 L 475 721 L 499 676 L 482 670 L 454 713"/>
  <path class="p3" d="M 475 721 L 497 727 L 517 680 L 499 676 L 475 721"/>
  <path class="p3" d="M 482 670 L 499 676 L 523 631 L 511 626 L 482 670"/>
  <path class="p3" d="M 499 676 L 517 680 L 536 634 L 523 631 L 499 676"/>
  <path class="p3" d="M 497 727 L 519 730 L 534 683 L 517 680 L 497 727"/>
  <path class="p3" d="M 519 730 L 542 731 L 552 684 L 534 683 L 519 730"/>
  <path class="p3" d="M 517 680 L 534 683 L 550 636 L 536 634 L 517 680"/>
  <path class="p3" d="M 534 683 L 552 684 L 563 637 L 550 636 L 534 683"/>
  <path class="p3" d="M 511 626 L 523 631 L 548 585 L 539 582 L 511 626"/>
  <path class="p3" d="M 523 631 L 536 634 L 556 588 L 548 585 L 523 631"/>
  <path class="p3" d="M 539 582 L 548 585 L 572 540 L 568 539 L 539 582"/>
  <line x1="568" y1="539" x2="572" y2="540"/>
  <path class="p3" d="M 548 585 L 556 588 L 576 541 L 572 540 L 548 585"/>
  <line x1="572" y1="540" x2="576" y2="541"/>
  <path class="p3" d="M 536 634 L 550 636 L 565 589 L 556 588 L 536 634"/>
  <path class="p3" d="M 550 636 L 563 637 L 573 589 L 565 589 L 550 636"/>
  <path class="p3" d="M 556 588 L 565 589 L 580 542 L 576 541 L 556 588"/>
  <line x1="576" y1="541" x2="580" y2="542"/>
  <path class="p3" d="M 565 589 L 573 589 L 584 542 L 580 542 L 565 589"/>
  <line x1="580" y1="542" x2="584" y2="542"/>
  <path class="p3" d="M 500 920 L 541 918 L 547 871 L 510 873 L 500 920"/>
  <line x1="500" y1="920" x2="541" y2="918"/>
  <path class="p3" d="M 541 918 L 582 912 L 583 866 L 547 871 L 541 918"/>
  <line x1="541" y1="918" x2="582" y2="912"/>
  <path class="p3" d="M 510 873 L 547 871 L 553 824 L 521 826 L 510 873"/>
  <path class="p3" d="M 547 871 L 583 866 L 585 819 L 553 824 L 547 871"/>
  <path class="p3" d="M 582 912 L 622 902 L 619 857 L 583 866 L 582 912"/>
  <line x1="582" y1="912" x2="622" y2="902"/>
  <path class="p3" d="M 622 902 L 661 888 L 653 844 L 619 857 L 622 902"/>
  <line x1="622" y1="902" x2="661" y2="888"/>
  <path class="p3" d="M 583 866 L 619 857 L 615 811 L 585 819 L 583 866"/>
  <path class="p3" d="M 619 857 L 653 844 L 646 801 L 615 811 L 619 857"/>
  <path class="p3" d="M 521 826 L 553 824 L 559 777 L 531 778 L 521 826"/>
  <path class="p3" d="M 553 824 L 585 819 L 586 773 L 559 777 L 553 824"/>
  <path class="p3" d="M 531 778 L 559 777 L 565 730 L 542 731 L 531 778"/>
  <path class="p3" d="M 559 777 L 586 773 L 587 727 L 565 730 L 559 777"/>
  <path class="p3" d="M 585 819 L 615 811 L 612 766 L 586 773 L 585 819"/>
  <path class="p3" d="M 615 811 L 646 801 L 638 757 L 612 766 L 615 811"/>
  <path class="p3" d="M 586 773 L 612 766 L 609 721 L 587 727 L 586 773"/>
  <path class="p3" d="M 612 766 L 638 757 L 630 713 L 609 721 L 612 766"/>
  <path class="p3" d="M 661 888 L 698 870 L 686 829 L 653 844 L 661 888"/>
  <line x1="661" y1="888" x2="698" y2="870"/>
  <path class="p3" d="M 698 870 L 733 849 L 718 810 L 686 829 L 698 870"/>
  <line x1="698" y1="870" x2="733" y2="849"/>
  <path class="p3" d="M 653 844 L 686 829 L 674 787 L 646 801 L 653 844"/>
  <path class="p3" d="M 686 829 L 718 810 L 702 771 L 674 787 L 686 829"/>
  <path class="p3" d="M 733 849 L 766 825 L 747 788 L 718 810 L 733 849"/>
  <line x1="733" y1="849" x2="766" y2="825"/>
  <path class="p3" d="M 766 825 L 797 797 L 774 764 L 747 788 L 766 825"/>
  <line x1="766" y1="825" x2="797" y2="797"/>
  <path class="p3" d="M 718 810 L 747 788 L 727 752 L 702 771 L 718 810"/>
  <path class="p3" d="M 747 788 L 774 764 L 751 730 L 727 752 L 747 788"/>
  <path class="p3" d="M 646 801 L 674 787 L 663 745 L 638 757 L 646 801"/>
  <path class="p3" d="M 674 787 L 702 771 L 686 731 L 663 745 L 674 787"/>
  <path class="p3" d="M 638 757 L 663 745 L 651 704 L 630 713 L 638 757"/>
  <path class="p3" d="M 663 745 L 686 731 L 670 692 L 651 704 L 663 745"/>
  <path class="p3" d="M 702 771 L 727 752 L 708 715 L 686 731 L 702 771"/>
  <path class="p3" d="M 727 752 L 751 730 L 728 697 L 708 715 L 727 752"/>
  <path class="p3" d="M 686 731 L 708 715 L 689 679 L 670 692 L 686 731"/>
  <path class="p3" d="M 708 715 L 728 697 L 705 663 L 689 679 L 708 715"/>
  <path class="p3" d="M 542 731 L 565 730 L 571 683 L 552 684 L 542 731"/>
  <path class="p3" d="M 565 730 L 587 727 L 588 680 L 571 683 L 565 730"/>
  <path class="p3" d="M 552 684 L 571 683 L 576 636 L 563 637 L 552 684"/>
  <path class="p3" d="M 571 683 L 588 680 L 590 634 L 576 636 L 571 683"/>
  <path class="p3" d="M 587 727 L 609 721 L 606 676 L 588 680 L 587 727"/>
  <path class="p3" d="M 609 721 L 630 713 L 623 670 L 606 676 L 609 721"/>
  <path class="p3" d="M 588 680 L 606 676 L 603 631 L 590 634 L 588 680"/>
  <path class="p3" d="M 606 676 L 623 670 L 615 626 L 603 631 L 606 676"/>
  <path class="p3" d="M 563 637 L 576 636 L 582 589 L 573 589 L 563 637"/>
  <path class="p3" d="M 576 636 L 590 634 L 591 588 L 582 589 L 576 636"/>
  <path class="p3" d="M 573 589 L 582 589 L 588 542 L 584 542 L 573 589"/>
  <line x1="584" y1="542" x2="588" y2="542"/>
  <path class="p3" d="M 582 589 L 591 588 L 592 541 L 588 542 L 582 589"/>
  <line x1="588" y1="542" x2="592" y2="541"/>
  <path class="p3" d="M 590 634 L 603 631 L 599 585 L 591 588 L 590 634"/>
  <path class="p3" d="M 603 631 L 615 626 L 608 582 L 599 585 L 603 631"/>
  <path class="p3" d="M 591 588 L 599 585 L 596 540 L 592 541 L 591 588"/>
  <line x1="592" y1="541" x2="596" y2="540"/>
  <path class="p3" d="M 599 585 L 608 582 L 600 539 L 596 540 L 599 585"/>
  <line x1="596" y1="540" x2="600" y2="539"/>
  <path class="p3" d="M 630 713 L 651 704 L 639 662 L 623 670 L 630 713"/>
  <path class="p3" d="M 651 704 L 670 692 L 655 653 L 639 662 L 651 704"/>
  <path class="p3" d="M 623 670 L 639 662 L 627 620 L 615 626 L 623 670"/>
  <path class="p3" d="M 639 662 L 655 653 L 639 613 L 627 620 L 639 662"/>
  <path class="p3" d="M 670 692 L 689 679 L 669 642 L 655 653 L 670 692"/>
  <path class="p3" d="M 689 679 L 705 663 L 682 630 L 669 642 L 689 679"/>
  <path class="p3" d="M 655 653 L 669 642 L 650 606 L 639 613 L 655 653"/>
  <path class="p3" d="M 669 642 L 682 630 L 660 597 L 650 606 L 669 642"/>
  <path class="p3" d="M 615 626 L 627 620 L 616 579 L 608 582 L 615 626"/>
  <path class="p3" d="M 627 620 L 639 613 L 623 574 L 616 579 L 627 620"/>
  <path class="p3" d="M 608 582 L 616 579 L 604 537 L 600 539 L 608 582"/>
  <line x1="600" y1="539" x2="604" y2="537"/>
  <path class="p3" d="M 616 579 L 623 574 L 607 535 L 604 537 L 616 579"/>
  <line x1="604" y1="537" x2="607" y2="535"/>
  <path class="p3" d="M 639 613 L 650 606 L 630 569 L 623 574 L 639 613"/>
  <path class="p3" d="M 650 606 L 660 597 L 637 563 L 630 569 L 650 606"/>
  <path class="p3" d="M 623 574 L 630 569 L 611 532 L 607 535 L 623 574"/>
  <line x1="607" y1="535" x2="611" y2="532"/>
  <path class="p3" d="M 630 569 L 637 563 L 614 530 L 611 532 L 630 569"/>
  <line x1="611" y1="532" x2="614" y2="530"/>
  <path class="p3" d="M 797 797 L 825 766 L 799 736 L 774 764 L 797 797"/>
  <line x1="797" y1="797" x2="825" y2="766"/>
  <path class="p3" d="M 825 766 L 849 733 L 820 707 L 799 736 L 825 766"/>
  <line x1="825" y1="766" x2="849" y2="733"/>
  <path class="p3" d="M 774 764 L 799 736 L 773 706 L 751 730 L 774 764"/>
  <path class="p3" d="M 799 736 L 820 707 L 792 681 L 773 706 L 799 736"/>
  <path class="p3" d="M 849 733 L 870 698 L 839 676 L 820 707 L 849 733"/>
  <line x1="849" y1="733" x2="870" y2="698"/>
  <path class="p3" d="M 870 698 L 888 661 L 855 643 L 839 676 L 870 698"/>
  <line x1="870" y1="698" x2="888" y2="661"/>
  <path class="p3" d="M 820 707 L 839 676 L 808 653 L 792 681 L 820 707"/>
  <path class="p3" d="M 839 676 L 855 643 L 822 625 L 808 653 L 839 676"/>
  <path class="p3" d="M 751 730 L 773 706 L 747 677 L 728 697 L 751 730"/>
  <path class="p3" d="M 773 706 L 792 681 L 763 655 L 747 677 L 773 706"/>
  <path class="p3" d="M 728 697 L 747 677 L 721 647 L 705 663 L 728 697"/>
  <path class="p3" d="M 747 677 L 763 655 L 734 628 L 721 647 L 747 677"/>
  <path class="p3" d="M 792 681 L 808 653 L 777 631 L 763 655 L 792 681"/>
  <path class="p3" d="M 808 653 L 822 625 L 789 606 L 777 631 L 808 653"/>
  <path class="p3" d="M 763 655 L 777 631 L 746 609 L 734 628 L 763 655"/>
  <path class="p3" d="M 777 631 L 789 606 L 755 588 L 746 609 L 777 631"/>
  <path class="p3" d="M 888 661 L 902 622 L 867 608 L 855 643 L 888 661"/>
  <line x1="888" y1="661" x2="902" y2="622"/>
  <path class="p3" d="M 902 622 L 912 582 L 876 573 L 867 608 L 902 622"/>
  <line x1="902" y1="622" x2="912" y2="582"/>
  <path class="p3" d="M 855 643 L 867 608 L 832 594 L 822 625 L 855 643"/>
  <path class="p3" d="M 867 608 L 876 573 L 840 564 L 832 594 L 867 608"/>
  <path class="p3" d="M 912 582 L 918 541 L 881 537 L 876 573 L 912 582"/>
  <line x1="912" y1="582" x2="918" y2="541"/>
  <path class="p3" d="M 918 541 L 920 500 L 883 500 L 881 537 L 918 541"/>
  <line x1="918" y1="541" x2="920" y2="500"/>
  <path class="p3" d="M 876 573 L 881 537 L 845 532 L 840 564 L 876 573"/>
  <path class="p3" d="M 881 537 L 883 500 L 847 500 L 845 532 L 881 537"/>
  <path class="p3" d="M 822 625 L 832 594 L 798 581 L 789 606 L 822 625"/>
  <path class="p3" d="M 832 594 L 840 564 L 804 554 L 798 581 L 832 594"/>
  <path class="p3" d="M 789 606 L 798 581 L 763 567 L 755 588 L 789 606"/>
  <path class="p3" d="M 798 581 L 804 554 L 769 545 L 763 567 L 798 581"/>
  <path class="p3" d="M 840 564 L 845 532 L 808 527 L 804 554 L 840 564"/>
  <path class="p3" d="M 845 532 L 847 500 L 810 500 L 808 527 L 845 532"/>
  <path class="p3" d="M 804 554 L 808 527 L 772 523 L 769 545 L 804 554"/>
  <path class="p3" d="M 808 527 L 810 500 L 773 500 L 772 523 L 808 527"/>
  <path class="p3" d="M 705 663 L 721 647 L 695 617 L 682 630 L 705 663"/>
  <path class="p3" d="M 721 647 L 734 628 L 705 602 L 695 617 L 721 647"/>
  <path class="p3" d="M 682 630 L 695 617 L 669 587 L 660 597 L 682 630"/>
  <path class="p3" d="M 695 617 L 705 602 L 676 576 L 669 587 L 695 617"/>
  <path class="p3" d="M 734 628 L 746 609 L 715 587 L 705 602 L 734 628"/>
  <path class="p3" d="M 746 609 L 755 588 L 722 570 L 715 587 L 746 609"/>
  <path class="p3" d="M 705 602 L 715 587 L 683 564 L 676 576 L 705 602"/>
  <path class="p3" d="M 715 587 L 722 570 L 689 552 L 683 564 L 715 587"/>
  <path class="p3" d="M 660 597 L 669 587 L 642 557 L 637 563 L 660 597"/>
  <path class="p3" d="M 669 587 L 676 576 L 648 550 L 642 557 L 669 587"/>
  <path class="p3" d="M 637 563 L 642 557 L 616 527 L 614 530 L 637 563"/>
  <line x1="614" y1="530" x2="616" y2="527"/>
  <path class="p3" d="M 642 557 L 648 550 L 619 523 L 616 527 L 642 557"/>
  <line x1="616" y1="527" x2="619" y2="523"/>
  <path class="p3" d="M 676 576 L 683 564 L 652 542 L 648 550 L 676 576"/>
  <path class="p3" d="M 683 564 L 689 552 L 656 534 L 652 542 L 683 564"/>
  <path class="p3" d="M 648 550 L 652 542 L 621 520 L 619 523 L 648 550"/>
  <line x1="619" y1="523" x2="621" y2="520"/>
  <path class="p3" d="M 652 542 L 656 534 L 623 516 L 621 520 L 652 542"/>
  <line x1="621" y1="520" x2="623" y2="516"/>
  <path class="p3" d="M 755 588 L 763 567 L 728 553 L 722 570 L 755 588"/>
  <path class="p3" d="M 763 567 L 769 545 L 733 536 L 728 553 L 763 567"/>
  <path class="p3" d="M 722 570 L 728 553 L 694 540 L 689 552 L 722 570"/>
  <path class="p3" d="M 728 553 L 733 536 L 697 527 L 694 540 L 728 553"/>
  <path class="p3" d="M 769 545 L 772 523 L 735 518 L 733 536 L 769 545"/>
  <path class="p3" d="M 772 523 L 773 500 L 736 500 L 735 518 L 772 523"/>
  <path class="p3" d="M 733 536 L 735 518 L 699 513 L 697 527 L 733 536"/>
  <path class="p3" d="M 735 518 L 736 500 L 700 500 L 699 513 L 735 518"/>
  <path class="p3" d="M 689 552 L 694 540 L 659 526 L 656 534 L 689 552"/>
  <path class="p3" d="M 694 540 L 697 527 L 661 517 L 659 526 L 694 540"/>
  <path class="p3" d="M 656 534 L 659 526 L 624 512 L 623 516 L 656 534"/>
  <line x1="623" y1="516" x2="624" y2="512"/>
  <path class="p3" d="M 659 526 L 661 517 L 625 508 L 624 512 L 659 526"/>
  <line x1="624" y1="512" x2="625" y2="508"/>
  <path class="p3" d="M 697 527 L 699 513 L 662 509 L 661 517 L 697 527"/>
  <path class="p3" d="M 699 513 L 700 500 L 663 500 L 662 509 L 699 513"/>
  <path class="p3" d="M 661 517 L 662 509 L 626 504 L 625 508 L 661 517"/>
  <line x1="625" y1="508" x2="626" y2="504"/>
  <path class="p3" d="M 662 509 L 663 500 L 626 500 L 626 504 L 662 509"/>
  <line x1="626" y1="504" x2="626" y2="500"/>

</svg>