<svg width="1000" height="1000" xmlns="http://www.w3.org/2000/svg" version="1.1">


<!-- internal style sheet -->
<style type="text/css"><![CDATA[
 rect.background{fill:white}
 rect{fill:none; stroke:rgb(25,25,25); stroke-width:2}
 text{font-family:Helvetica; text-anchor:middle; fill:rgb(25,25,25)}
 line{stroke:rgb(25,25,25); stroke-width:4}
 path{fill:none; stroke:rgb(25,25,25); stroke-width:2}
 circle{fill:white; stroke:black; stroke-width:2}

 path.p0{fill:rgb(0,102,255); stroke:rgb(25,25,25); stroke-width:2}
 path.ps0{fill:rgb(0,77,191); stroke:rgb(20,20,20); stroke-width:2}
 rect.r0{fill:rgb(0,102,255); stroke:rgb(25,25,25); stroke-width:2}
 path.p1{fill:rgb(0,255,102); stroke:rgb(25,25,25); stroke-width:2}
 path.ps1{fill:rgb(0,191,77); stroke:rgb(20,20,20); stroke-width:2}
 rect.r1{fill:rgb(0,255,102); stroke:rgb(25,25,25); stroke-width:2}
 path.p2{fill:rgb(204,255,0); stroke:rgb(25,25,25); stroke-width:2}
 path.ps2{fill:rgb(153,191,0); stroke:rgb(20,20,20); stroke-width:2}
 rect.r2{fill:rgb(204,255,0); stroke:rgb(25,25,25); stroke-width:2}
 path.p3{fill:rgb(255,0,0); stroke:rgb(25,25,25); stroke-width:2}
 path.ps3{fill:rgb(191,0,0); stroke:rgb(20,20,20); stroke-width:2}
 rect.r3{fill:rgb(255,0,0); stroke:rgb(25,25,25); stroke-width:2}
]]></style>

 <rect class="background" width="1000" height="1000"/>
  <!-- cells -->
  <path class="p3" d="M 920 500 L 918 459 L 885 464 L 887 500 L 920 500"/>
  <line x1="920" y1="500" x2="918" y2="459"/>
  <path class="p3" d="M 918 459 L 912 418 L 879 427 L 885 464 L 918 459"/>
  <line x1="918" y1="459" x2="912" y2="418"/>
  <path class="p3" d="M 887 500 L 885 464 L 852 468 L 853 500 L 887 500"/>
  <path class="p3" d="M 885 464 L 879 427 L 847 437 L 852 468 L 885 464"/>
  <path class="p3" d="M 912 418 L 902 378 L 871 392 L 879 427 L 912 418"/>
  <line x1="912" y1="418" x2="902" y2="378"/>
  <path class="p3" d="M 902 378 L 888 339 L 858 358 L 871 392 L 902 378"/>
  <line x1="902" y1="378" x2="888" y2="339"/>
  <path class="p3" d="M 879 427 L 871 392 L 839 406 L 847 437 L 879 427"/>
  <path class="p3" d="M 871 392 L 858 358 L 828 376 L 839 406 L 871 392"/>
  <path class="p3" d="M 853 500 L 852 468 L 818 473 L 820 500 L 853 500"/>
  <path class="p3" d="M 852 468 L 847 437 L 814 446 L 818 473 L 852 468"/>
  <path class="p3" d="M 820 500 L 818 473 L 785 478 L 786 500 L 820 500"/>
  <path class="p3" d="M 818 473 L 814 446 L 782 455 L 785 478 L 818 473"/>
  <path class="p3" d="M 847 437 L 839 406 L 808 420 L 814 446 L 847 437"/>
  <path class="p3" d="M 839 406 L 828 376 L 799 394 L 808 420 L 839 406"/>
  <path class="p3" d="M 814 446 L 808 420 L 776 433 L 782 455 L 814 446"/>
  <path class="p3" d="M 808 420 L 799 394 L 769 412 L 776 433 L 808 420"/>
  <path class="p3" d="M 888 339 L 870 302 L 843 325 L 858 358 L 888 339"/>
  <line x1="888" y1="339" x2="870" y2="302"/>
  <path class="p3" d="M 870 302 L 849 267 L 824 293 L 843 325 L 870 302"/>
  <line x1="870" y1="302" x2="849" y2="267"/>
  <path class="p3" d="M 858 358 L 843 325 L 815 347 L 828 376 L 858 358"/>
  <path class="p3" d="M 843 325 L 824 293 L 798 320 L 815 347 L 843 325"/>
  <path class="p3" d="M 849 267 L 825 234 L 802 264 L 824 293 L 849 267"/>
  <line x1="849" y1="267" x2="825" y2="234"/>
  <path class="p3" d="M 825 234 L 797 203 L 778 237 L 802 264 L 825 234"/>
  <line x1="825" y1="234" x2="797" y2="203"/>
  <path class="p3" d="M 824 293 L 802 264 L 780 294 L 798 320 L 824 293"/>
  <path class="p3" d="M 802 264 L 778 237 L 758 271 L 780 294 L 802 264"/>
  <path class="p3" d="M 828 376 L 815 347 L 787 370 L 799 394 L 828 376"/>
  <path class="p3" d="M 815 347 L 798 320 L 773 346 L 787 370 L 815 347"/>
  <path class="p3" d="M 799 394 L 787 370 L 759 392 L 769 412 L 799 394"/>
  <path class="p3" d="M 787 370 L 773 346 L 748 373 L 759 392 L 787 370"/>
  <path class="p3" d="M 798 320 L 780 294 L 757 324 L 773 346 L 798 320"/>
  <path class="p3" d="M 780 294 L 758 271 L 739 304 L 757 324 L 780 294"/>
  <path class="p3" d="M 773 346 L 757 324 L 734 355 L 748 373 L 773 346"/>
  <path class="p3" d="M 757 324 L 739 304 L 719 338 L 734 355 L 757 324"/>
  <path class="p3" d="M 786 500 L 785 478 L 752 482 L 753 500 L 786 500"/>
  <path class="p3" d="M 785 478 L 782 455 L 749 465 L 752 482 L 785 478"/>
  <path class="p3" d="M 753 500 L 752 482 L 719 487 L 720 500 L 753 500"/>
  <path class="p3" d="M 752 482 L 749 465 L 717 474 L 719 487 L 752 482"/>
  <path class="p3" d="M 782 455 L 776 433 L 745 447 L 749 465 L 782 455"/>
  <path class="p3" d="M 776 433 L 769 412 L 739 431 L 745 447 L 776 433"/>
  <path class="p3" d="M 749 465 L 745 447 L 714 461 L 717 474 L 749 465"/>
  <path class="p3" d="M 745 447 L 739 431 L 709 449 L 714 461 L 745 447"/>
  <path class="p3" d="M 720 500 L 719 487 L 686 492 L 686 500 L 720 500"/>
  <path class="p3" d="M 719 487 L 717 474 L 684 483 L 686 492 L 719 487"/>
  <path class="p3" d="M 686 500 L 686 492 L 653 496 L 653 500 L 686 500"/>
  <line x1="653" y1="500" x2="653" y2="496"/>
  <path class="p3" d="M 686 492 L 684 483 L 652 493 L 653 496 L 686 492"/>
  <line x1="653" y1="496" x2="652" y2="493"/>
  <path class="p3" d="M 717 474 L 714 461 L 682 475 L 684 483 L 717 474"/>
  <path class="p3" d="M 714 461 L 709 449 L 680 467 L 682 475 L 714 461"/>
  <path class="p3" d="M 684 483 L 682 475 L 651 489 L 652 493 L 684 483"/>
  <line x1="652" y1="493" x2="651" y2="489"/>
  <path class="p3" d="M 682 475 L 680 467 L 650 485 L 651 489 L 682 475"/>
  <line x1="651" y1="489" x2="650" y2="485"/>
  <path class="p3" d="M 769 412 L 759 392 L 732 415 L 739 431 L 769 412"/>
  <path class="p3" d="M 759 392 L 748 373 L 722 399 L 732 415 L 759 392"/>
  <path class="p3" d="M 739 431 L 732 415 L 704 437 L 709 449 L 739 431"/>
  <path class="p3" d="M 732 415 L 722 399 L 697 426 L 704 437 L 732 415"/>
  <path class="p3" d="M 748 373 L 734 355 L 712 385 L 722 399 L 748 373"/>
  <path class="p3" d="M 734 355 L 719 338 L 700 372 L 712 385 L 734 355"/>
  <path class="p3" d="M 722 399 L 712 385 L 689 415 L 697 426 L 722 399"/>
  <path class="p3" d="M 712 385 L 700 372 L 680 406 L 689 415 L 712 385"/>
  <path class="p3" d="M 709 449 L 704 437 L 676 460 L 680 467 L 709 449"/>
  <path class="p3" d="M 704 437 L 697 426 L 672 452 L 676 460 L 704 437"/>
  <path class="p3" d="M 680 467 L 676 460 L 648 482 L 650 485 L 680 467"/>
  <line x1="650" y1="485" x2="648" y2="482"/>
  <path class="p3" d="M 676 460 L 672 452 L 646 479 L 648 482 L 676 460"/>
  <line x1="648" y1="482" x2="646" y2="479"/>
  <path class="p3" d="M 697 426 L 689 415 L 667 445 L 672 452 L 697 426"/>
  <path class="p3" d="M 689 415 L 680 406 L 661 439 L 667 445 L 689 415"/>
  <path class="p3" d="M 672 452 L 667 445 L 644 476 L 646 479 L 672 452"/>
  <line x1="646" y1="479" x2="644" y2="476"/>
  <path class="p3" d="M 667 445 L 661 439 L 642 473 L 644 476 L 667 445"/>
  <line x1="644" y1="476" x2="642" y2="473"/>
  <path class="p3" d="M 797 203 L 766 175 L 750 212 L 778 237 L 797 203"/>
  <line x1="797" y1="203" x2="766" y2="175"/>
  <path class="p3" d="M 766 175 L 733 151 L 721 190 L 750 212 L 766 175"/>
  <line x1="766" y1="175" x2="733" y2="151"/>
  <path class="p3" d="M 778 237 L 750 212 L 735 249 L 758 271 L 778 237"/>
  <path class="p3" d="M 750 212 L 721 190 L 709 230 L 735 249 L 750 212"/>
  <path class="p3" d="M 733 151 L 698 130 L 690 172 L 721 190 L 733 151"/>
  <line x1="733" y1="151" x2="698" y2="130"/>
  <path class="p3" d="M 698 130 L 661 112 L 657 156 L 690 172 L 698 130"/>
  <line x1="698" y1="130" x2="661" y2="112"/>
  <path class="p3" d="M 721 190 L 690 172 L 682 214 L 709 230 L 721 190"/>
  <path class="p3" d="M 690 172 L 657 156 L 653 200 L 682 214 L 690 172"/>
  <path class="p3" d="M 758 271 L 735 249 L 719 286 L 739 304 L 758 271"/>
  <path class="p3" d="M 735 249 L 709 230 L 697 270 L 719 286 L 735 249"/>
  <path class="p3" d="M 739 304 L 719 286 L 703 323 L 719 338 L 739 304"/>
  <path class="p3" d="M 719 286 L 697 270 L 685 310 L 703 323 L 719 286"/>
  <path class="p3" d="M 709 230 L 682 214 L 673 256 L 697 270 L 709 230"/>
  <path class="p3" d="M 682 214 L 653 200 L 649 244 L 673 256 L 682 214"/>
  <path class="p3" d="M 697 270 L 673 256 L 665 298 L 685 310 L 697 270"/>
  <path class="p3" d="M 673 256 L 649 244 L 645 288 L 665 298 L 673 256"/>
  <path class="p3" d="M 661 112 L 622 98 L 622 144 L 657 156 L 661 112"/>
  <line x1="661" y1="112" x2="622" y2="98"/>
  <path class="p3" d="M 622 98 L 582 88 L 587 135 L 622 144 L 622 98"/>
  <line x1="622" y1="98" x2="582" y2="88"/>
  <path class="p3" d="M 657 156 L 622 144 L 623 189 L 653 200 L 657 156"/>
  <path class="p3" d="M 622 144 L 587 135 L 592 182 L 623 189 L 622 144"/>
  <path class="p3" d="M 582 88 L 541 82 L 551 130 L 587 135 L 582 88"/>
  <line x1="582" y1="88" x2="541" y2="82"/>
  <path class="p3" d="M 541 82 L 500 80 L 514 128 L 551 130 L 541 82"/>
  <line x1="541" y1="82" x2="500" y2="80"/>
  <path class="p3" d="M 587 135 L 551 130 L 560 177 L 592 182 L 587 135"/>
  <path class="p3" d="M 551 130 L 514 128 L 529 175 L 560 177 L 551 130"/>
  <path class="p3" d="M 653 200 L 623 189 L 623 235 L 649 244 L 653 200"/>
  <path class="p3" d="M 623 189 L 592 182 L 597 229 L 623 235 L 623 189"/>
  <path class="p3" d="M 649 244 L 623 235 L 624 281 L 645 288 L 649 244"/>
  <path class="p3" d="M 623 235 L 597 229 L 602 275 L 624 281 L 623 235"/>
  <path class="p3" d="M 592 182 L 560 177 L 570 225 L 597 229 L 592 182"/>
  <path class="p3" d="M 560 177 L 529 175 L 543 223 L 570 225 L 560 177"/>
  <path class="p3" d="M 597 229 L 570 225 L 580 272 L 602 275 L 597 229"/>
  <path class="p3" d="M 570 225 L 543 223 L 557 271 L 580 272 L 570 225"/>
  <path class="p3" d="M 719 338 L 703 323 L 687 360 L 700 372 L 719 338"/>
  <path class="p3" d="M 703 323 L 685 310 L 672 349 L 687 360 L 703 323"/>
  <path class="p3" d="M 700 372 L 687 360 L 671 397 L 680 406 L 700 372"/>
  <path class="p3" d="M 687 360 L 672 349 L 660 389 L 671 397 L 687 360"/>
  <path class="p3" d="M 685 310 L 665 298 L 657 340 L 672 349 L 685 310"/>
  <path class="p3" d="M 665 298 L 645 288 L 641 332 L 657 340 L 665 298"/>
  <path class="p3" d="M 672 349 L 657 340 L 649 382 L 660 389 L 672 349"/>
  <path class="p3" d="M 657 340 L 641 332 L 637 377 L 649 382 L 657 340"/>
  <path class="p3" d="M 680 406 L 671 397 L 655 434 L 661 439 L 680 406"/>
  <path class="p3" d="M 671 397 L 660 389 L 648 429 L 655 434 L 671 397"/>
  <path class="p3" d="M 661 439 L 655 434 L 639 470 L 642 473 L 661 439"/>
  <line x1="642" y1="473" x2="639" y2="470"/>
  <path class="p3" d="M 655 434 L 648 429 L 636 468 L 639 470 L 655 434"/>
  <line x1="639" y1="470" x2="636" y2="468"/>
  <path class="p3" d="M 660 389 L 649 382 L 641 424 L 648 429 L 660 389"/>
  <path class="p3" d="M 649 382 L 637 377 L 633 421 L 641 424 L 649 382"/>
  <path class="p3" d="M 648 429 L 641 424 L 633 466 L 636 468 L 648 429"/>
  <line x1="636" y1="468" x2="633" y2="466"/>
  <path class="p3" d="M 641 424 L 633 421 L 629 465 L 633 466 L 641 424"/>
  <line x1="633" y1="466" x2="629" y2="465"/>
  <path class="p3" d="M 645 288 L 624 281 L 624 326 L 641 332 L 645 288"/>
  <path class="p3" d="M 624 281 L 602 275 L 607 322 L 624 326 L 624 281"/>
  <path class="p3" d="M 641 332 L 624 326 L 625 372 L 637 377 L 641 332"/>
  <path class="p3" d="M 624 326 L 607 322 L 612 369 L 625 372 L 624 326"/>
  <path class="p3" d="M 602 275 L 580 272 L 589 320 L 607 322 L 602 275"/>
  <path class="p3" d="M 580 272 L 557 271 L 572 319 L 589 320 L 580 272"/>
  <path class="p3" d="M 607 322 L 589 320 L 599 367 L 612 369 L 607 322"/>
  <path class="p3" d="M 589 320 L 572 319 L 586 366 L 599 367 L 589 320"/>
  <path class="p3" d="M 637 377 L 625 372 L 625 418 L 633 421 L 637 377"/>
  <path class="p3" d="M 625 372 L 612 369 L 617 416 L 625 418 L 625 372"/>
  <path class="p3" d="M 633 421 L 625 418 L 626 463 L 629 465 L 633 421"/>
  <line x1="629" y1="465" x2="626" y2="463"/>
  <path class="p3" d="M 625 418 L 617 416 L 622 463 L 626 463 L 625 418"/>
  <line x1="626" y1="463" x2="622" y2="463"/>
  <path class="p3" d="M 612 369 L 599 367 L 609 415 L 617 416 L 612 369"/>
  <path class="p3" d="M 599 367 L 586 366 L 600 414 L 609 415 L 599 367"/>
  <path class="p3" d="M 617 416 L 609 415 L 618 462 L 622 463 L 617 416"/>
  <line x1="622" y1="463" x2="618" y2="462"/>
  <path class="p3" d="M 609 415 L 600 414 L 615 462 L 618 462 L 609 415"/>
  <line x1="618" y1="462" x2="615" y2="462"/>
  <path class="p3" d="M 500 80 L 459 82 L 478 130 L 514 128 L 500 80"/>
  <line x1="500" y1="80" x2="459" y2="82"/>
  <path class="p3" d="M 459 82 L 418 88 L 442 135 L 478 130 L 459 82"/>
  <line x1="459" y1="82" x2="418" y2="88"/>
  <path class="p3" d="M 514 128 L 478 130 L 497 177 L 529 175 L 514 128"/>
  <path class="p3" d="M 478 130 L 442 135 L 465 182 L 497 177 L 478 130"/>
  <path class="p3" d="M 418 88 L 378 98 L 406 144 L 442 135 L 418 88"/>
  <line x1="418" y1="88" x2="378" y2="98"/>
  <path class="p3" d="M 378 98 L 339 112 L 372 156 L 406 144 L 378 98"/>
  <line x1="378" y1="98" x2="339" y2="112"/>
  <path class="p3" d="M 442 135 L 406 144 L 434 189 L 465 182 L 442 135"/>
  <path class="p3" d="M 406 144 L 372 156 L 404 200 L 434 189 L 406 144"/>
  <path class="p3" d="M 529 175 L 497 177 L 516 225 L 543 223 L 529 175"/>
  <path class="p3" d="M 497 177 L 465 182 L 489 229 L 516 225 L 497 177"/>
  <path class="p3" d="M 543 223 L 516 225 L 535 272 L 557 271 L 543 223"/>
  <path class="p3" d="M 516 225 L 489 229 L 513 275 L 535 272 L 516 225"/>
  <path class="p3" d="M 465 182 L 434 189 L 463 235 L 489 229 L 465 182"/>
  <path class="p3" d="M 434 189 L 404 200 L 437 244 L 463 235 L 434 189"/>
  <path class="p3" d="M 489 229 L 463 235 L 491 281 L 513 275 L 489 229"/>
  <path class="p3" d="M 463 235 L 437 244 L 470 288 L 491 281 L 463 235"/>
  <path class="p3" d="M 339 112 L 302 130 L 339 172 L 372 156 L 339 112"/>
  <line x1="339" y1="112" x2="302" y2="130"/>
  <path class="p3" d="M 302 130 L 267 151 L 307 190 L 339 172 L 302 130"/>
  <line x1="302" y1="130" x2="267" y2="151"/>
  <path class="p3" d="M 372 156 L 339 172 L 376 214 L 404 200 L 372 156"/>
  <path class="p3" d="M 339 172 L 307 190 L 348 230 L 376 214 L 339 172"/>
  <path class="p3" d="M 267 151 L 234 175 L 278 212 L 307 190 L 267 151"/>
  <line x1="267" y1="151" x2="234" y2="175"/>
  <path class="p3" d="M 234 175 L 203 203 L 251 237 L 278 212 L 234 175"/>
  <line x1="234" y1="175" x2="203" y2="203"/>
  <path class="p3" d="M 307 190 L 278 212 L 323 249 L 348 230 L 307 190"/>
  <path class="p3" d="M 278 212 L 251 237 L 299 271 L 323 249 L 278 212"/>
  <path class="p3" d="M 404 200 L 376 214 L 412 256 L 437 244 L 404 200"/>
  <path class="p3" d="M 376 214 L 348 230 L 389 270 L 412 256 L 376 214"/>
  <path class="p3" d="M 437 244 L 412 256 L 449 298 L 470 288 L 437 244"/>
  <path class="p3" d="M 412 256 L 389 270 L 430 310 L 449 298 L 412 256"/>
  <path class="p3" d="M 348 230 L 323 249 L 367 286 L 389 270 L 348 230"/>
  <path class="p3" d="M 323 249 L 299 271 L 347 304 L 367 286 L 323 249"/>
  <path class="p3" d="M 389 270 L 367 286 L 412 323 L 430 310 L 389 270"/>
  <path class="p3" d="M 367 286 L 347 304 L 395 338 L 412 323 L 367 286"/>
  <path class="p3" d="M 557 271 L 535 272 L 554 320 L 572 319 L 557 271"/>
  <path class="p3" d="M 535 272 L 513 275 L 536 322 L 554 320 L 535 272"/>
  <path class="p3" d="M 572 319 L 554 320 L 573 367 L 586 366 L 572 319"/>
  <path class="p3" d="M 554 320 L 536 322 L 560 369 L 573 367 L 554 320"/>
  <path class="p3" d="M 513 275 L 491 281 L 519 326 L 536 322 L 513 275"/>
  <path class="p3" d="M 491 281 L 470 288 L 502 332 L 519 326 L 491 281"/>
  <path class="p3" d="M 536 322 L 519 326 L 547 372 L 560 369 L 536 322"/>
  <path class="p3" d="M 519 326 L 502 332 L 535 377 L 547 372 L 519 326"/>
  <path class="p3" d="M 586 366 L 573 367 L 592 415 L 600 414 L 586 366"/>
  <path class="p3" d="M 573 367 L 560 369 L 583 416 L 592 415 L 573 367"/>
  <path class="p3" d="M 600 414 L 592 415 L 611 462 L 615 462 L 600 414"/>
  <line x1="615" y1="462" x2="611" y2="462"/>
  <path class="p3" d="M 592 415 L 583 416 L 607 463 L 611 462 L 592 415"/>
  <line x1="611" y1="462" x2="607" y2="463"/>
  <path class="p3" d="M 560 369 L 547 372 L 575 418 L 583 416 L 560 369"/>
  <path class="p3" d="M 547 372 L 535 377 L 567 421 L 575 418 L 547 372"/>
  <path class="p3" d="M 583 416 L 575 418 L 603 463 L 607 463 L 583 416"/>
  <line x1="607" y1="463" x2="603" y2="463"/>
  <path class="p3" d="M 575 418 L 567 421 L 600 465 L 603 463 L 575 418"/>
  <line x1="603" y1="463" x2="600" y2="465"/>
  <path class="p3" d="M 470 288 L 449 298 L 486 340 L 502 332 L 470 288"/>
  <path class="p3" d="M 449 298 L 430 310 L 471 349 L 486 340 L 449 298"/>
  <path class="p3" d="M 502 332 L 486 340 L 523 382 L 535 377 L 502 332"/>
  <path class="p3" d="M 486 340 L 471 349 L 512 389 L 523 382 L 486 340"/>
  <path class="p3" d="M 430 310 L 412 323 L 457 360 L 471 349 L 430 310"/>
  <path class="p3" d="M 412 323 L 395 338 L 443 372 L 457 360 L 412 323"/>
  <path class="p3" d="M 471 349 L 457 360 L 501 397 L 512 389 L 471 349"/>
  <path class="p3" d="M 457 360 L 443 372 L 491 406 L 501 397 L 457 360"/>
  <path class="p3" d="M 535 377 L 523 382 L 560 424 L 567 421 L 535 377"/>
  <path class="p3" d="M 523 382 L 512 389 L 552 429 L 560 424 L 523 382"/>
  <path class="p3" d="M 567 421 L 560 424 L 597 466 L 600 465 L 567 421"/>
  <line x1="600" y1="465" x2="597" y2="466"/>
  <path class="p3" d="M 560 424 L 552 429 L 593 468 L 597 466 L 560 424"/>
  <line x1="597" y1="466" x2="593" y2="468"/>
  <path class="p3" d="M 512 389 L 501 397 L 546 434 L 552 429 L 512 389"/>
  <path class="p3" d="M 501 397 L 491 406 L 539 439 L 546 434 L 501 397"/>
  <path class="p3" d="M 552 429 L 546 434 L 590 470 L 593 468 L 552 429"/>
  <line x1="593" y1="468" x2="590" y2="470"/>
  <path class="p3" d="M 546 434 L 539 439 L 588 473 L 590 470 L 546 434"/>
  <line x1="590" y1="470" x2="588" y2="473"/>
  <path class="p3" d="M 203 203 L 175 234 L 227 264 L 251 237 L 203 203"/>
  <line x1="203" y1="203" x2="175" y2="234"/>
  <path class="p3" d="M 175 234 L 151 267 L 205 293 L 227 264 L 175 234"/>
  <line x1="175" y1="234" x2="151" y2="267"/>
  <path class="p3" d="M 251 237 L 227 264 L 278 294 L 299 271 L 251 237"/>
  <path class="p3" d="M 227 264 L 205 293 L 259 320 L 278 294 L 227 264"/>
  <path class="p3" d="M 151 267 L 130 302 L 186 325 L 205 293 L 151 267"/>
  <line x1="151" y1="267" x2="130" y2="302"/>
  <path class="p3" d="M 130 302 L 112 339 L 170 358 L 186 325 L 130 302"/>
  <line x1="130" y1="302" x2="112" y2="339"/>
  <path class="p3" d="M 205 293 L 186 325 L 242 347 L 259 320 L 205 293"/>
  <path class="p3" d="M 186 325 L 170 358 L 229 376 L 242 347 L 186 325"/>
  <path class="p3" d="M 299 271 L 278 294 L 329 324 L 347 304 L 299 271"/>
  <path class="p3" d="M 278 294 L 259 320 L 313 346 L 329 324 L 278 294"/>
  <path class="p3" d="M 347 304 L 329 324 L 380 355 L 395 338 L 347 304"/>
  <path class="p3" d="M 329 324 L 313 346 L 367 373 L 380 355 L 329 324"/>
  <path class="p3" d="M 259 320 L 242 347 L 299 370 L 313 346 L 259 320"/>
  <path class="p3" d="M 242 347 L 229 376 L 287 394 L 299 370 L 242 347"/>
  <path class="p3" d="M 313 346 L 299 370 L 355 392 L 367 373 L 313 346"/>
  <path class="p3" d="M 299 370 L 287 394 L 346 412 L 355 392 L 299 370"/>
  <path class="p3" d="M 112 339 L 98 378 L 158 392 L 170 358 L 112 339"/>
  <line x1="112" y1="339" x2="98" y2="378"/>
  <path class="p3" d="M 98 378 L 88 418 L 149 427 L 158 392 L 98 378"/>
  <line x1="98" y1="378" x2="88" y2="418"/>
  <path class="p3" d="M 170 358 L 158 392 L 218 406 L 229 376 L 170 358"/>
  <path class="p3" d="M 158 392 L 149 427 L 210 437 L 218 406 L 158 392"/>
  <path class="p3" d="M 88 418 L 82 459 L 144 464 L 149 427 L 88 418"/>
  <line x1="88" y1="418" x2="82" y2="459"/>
  <path class="p3" d="M 82 459 L 80 500 L 142 500 L 144 464 L 82 459"/>
  <line x1="82" y1="459" x2="80" y2="500"/>
  <path class="p3" d="M 149 427 L 144 464 L 206 468 L 210 437 L 149 427"/>
  <path class="p3" d="M 144 464 L 142 500 L 204 500 L 206 468 L 144 464"/>
  <path class="p3" d="M 229 376 L 218 406 L 278 420 L 287 394 L 229 376"/>
  <path class="p3" d="M 218 406 L 210 437 L 271 446 L 278 420 L 218 406"/>
  <path class="p3" d="M 287 394 L 278 420 L 338 433 L 346 412 L 287 394"/>
  <path class="p3" d="M 278 420 L 271 446 L 333 455 L 338 433 L 278 420"/>
  <path class="p3" d="M 210 437 L 206 468 L 267 473 L 271 446 L 210 437"/>
  <path class="p3" d="M 206 468 L 204 500 L 266 500 L 267 473 L 206 468"/>
  <path class="p3" d="M 271 446 L 267 473 L 329 478 L 333 455 L 271 446"/>
  <path class="p3" d="M 267 473 L 266 500 L 328 500 L 329 478 L 267 473"/>
  <path class="p3" d="M 395 338 L 380 355 L 431 385 L 443 372 L 395 338"/>
  <path class="p3" d="M 380 355 L 367 373 L 421 399 L 431 385 L 380 355"/>
  <path class="p3" d="M 443 372 L 431 385 L 483 415 L 491 406 L 443 372"/>
  <path class="p3" d="M 431 385 L 421 399 L 475 426 L 483 415 L 431 385"/>
  <path class="p3" d="M 367 373 L 355 392 L 412 415 L 421 399 L 367 373"/>
  <path class="p3" d="M 355 392 L 346 412 L 404 431 L 412 415 L 355 392"/>
  <path class="p3" d="M 421 399 L 412 415 L 468 437 L 475 426 L 421 399"/>
  <path class="p3" d="M 412 415 L 404 431 L 462 449 L 468 437 L 412 415"/>
  <path class="p3" d="M 491 406 L 483 415 L 534 445 L 539 439 L 491 406"/>
  <path class="p3" d="M 483 415 L 475 426 L 529 452 L 534 445 L 483 415"/>
  <path class="p3" d="M 539 439 L 534 445 L 585 476 L 588 473 L 539 439"/>
  <line x1="588" y1="473" x2="585" y2="476"/>
  <path class="p3" d="M 534 445 L 529 452 L 583 479 L 585 476 L 534 445"/>
  <line x1="585" y1="476" x2="583" y2="479"/>
  <path class="p3" d="M 475 426 L 468 437 L 524 460 L 529 452 L 475 426"/>
  <path class="p3" d="M 468 437 L 462 449 L 521 467 L 524 460 L 468 437"/>
  <path class="p3" d="M 529 452 L 524 460 L 581 482 L 583 479 L 529 452"/>
  <line x1="583" y1="479" x2="581" y2="482"/>
  <path class="p3" d="M 524 460 L 521 467 L 579 485 L 581 482 L 524 460"/>
  <line x1="581" y1="482" x2="579" y2="485"/>
  <path class="p3" d="M 346 412 L 338 433 L 398 447 L 404 431 L 346 412"/>
  <path class="p3" d="M 338 433 L 333 455 L 394 465 L 398 447 L 338 433"/>
  <path class="p3" d="M 404 431 L 398 447 L 458 461 L 462 449 L 404 431"/>
  <path class="p3" d="M 398 447 L 394 465 L 455 474 L 458 461 L 398 447"/>
  <path class="p3" d="M 333 455 L 329 478 L 391 482 L 394 465 L 333 455"/>
  <path class="p3" d="M 329 478 L 328 500 L 390 500 L 391 482 L 329 478"/>
  <path class="p3" d="M 394 465 L 391 482 L 453 487 L 455 474 L 394 465"/>
  <path class="p3" d="M 391 482 L 390 500 L 452 500 L 453 487 L 391 482"/>
  <path class="p3" d="M 462 449 L 458 461 L 518 475 L 521 467 L 462 449"/>
  <path class="p3" d="M 458 461 L 455 474 L 516 483 L 518 475 L 458 461"/>
  <path class="p3" d="M 521 467 L 518 475 L 578 489 L 579 485 L 521 467"/>
  <line x1="579" y1="485" x2="578" y2="489"/>
  <path class="p3" d="M 518 475 L 516 483 L 577 493 L 578 489 L 518 475"/>
  <line x1="578" y1="489" x2="577" y2="493"/>
  <path class="p3" d="M 455 474 L 453 487 L 515 492 L 516 483 L 455 474"/>
  <path class="p3" d="M 453 487 L 452 500 L 514 500 L 515 492 L 453 487"/>
  <path class="p3" d="M 516 483 L 515 492 L 577 496 L 577 493 L 516 483"/>
  <line x1="577" y1="493" x2="577" y2="496"/>
  <path class="p3" d="M 515 492 L 514 500 L 576 500 L 577 496 L 515 492"/>
  <line x1="577" y1="496" x2="576" y2="500"/>
  <path class="p3" d="M 80 500 L 82 541 L 144 536 L 142 500 L 80 500"/>
  <line x1="80" y1="500" x2="82" y2="541"/>
  <path class="p3" d="M 82 541 L 88 582 L 149 573 L 144 536 L 82 541"/>
  <line x1="82" y1="541" x2="88" y2="582"/>
  <path class="p3" d="M 142 500 L 144 536 L 206 532 L 204 500 L 142 500"/>
  <path class="p3" d="M 144 536 L 149 573 L 210 563 L 206 532 L 144 536"/>
  <path class="p3" d="M 88 582 L 98 622 L 158 608 L 149 573 L 88 582"/>
  <line x1="88" y1="582" x2="98" y2="622"/>
  <path class="p3" d="M 98 622 L 112 661 L 170 642 L 158 608 L 98 622"/>
  <line x1="98" y1="622" x2="112" y2="661"/>
  <path class="p3" d="M 149 573 L 158 608 L 218 594 L 210 563 L 149 573"/>
  <path class="p3" d="M 158 608 L 170 642 L 229 624 L 218 594 L 158 608"/>
  <path class="p3" d="M 204 500 L 206 532 L 267 527 L 266 500 L 204 500"/>
  <path class="p3" d="M 206 532 L 210 563 L 271 554 L 267 527 L 206 532"/>
  <path class="p3" d="M 266 500 L 267 527 L 329 522 L 328 500 L 266 500"/>
  <path class="p3" d="M 267 527 L 271 554 L 333 545 L 329 522 L 267 527"/>
  <path class="p3" d="M 210 563 L 218 594 L 278 580 L 271 554 L 210 563"/>
  <path class="p3" d="M 218 594 L 229 624 L 287 606 L 278 580 L 218 594"/>
  <path class="p3" d="M 271 554 L 278 580 L 338 567 L 333 545 L 271 554"/>
  <path class="p3" d="M 278 580 L 287 606 L 346 588 L 338 567 L 278 580"/>
  <path class="p3" d="M 112 661 L 130 698 L 186 675 L 170 642 L 112 661"/>
  <line x1="112" y1="661" x2="130" y2="698"/>
  <path class="p3" d="M 130 698 L 151 733 L 205 707 L 186 675 L 130 698"/>
  <line x1="130" y1="698" x2="151" y2="733"/>
  <path class="p3" d="M 170 642 L 186 675 L 242 653 L 229 624 L 170 642"/>
  <path class="p3" d="M 186 675 L 205 707 L 259 680 L 242 653 L 186 675"/>
  <path class="p3" d="M 151 733 L 175 766 L 227 736 L 205 707 L 151 733"/>
  <line x1="151" y1="733" x2="175" y2="766"/>
  <path class="p3" d="M 175 766 L 203 797 L 251 763 L 227 736 L 175 766"/>
  <line x1="175" y1="766" x2="203" y2="797"/>
  <path class="p3" d="M 205 707 L 227 736 L 278 706 L 259 680 L 205 707"/>
  <path class="p3" d="M 227 736 L 251 763 L 299 729 L 278 706 L 227 736"/>
  <path class="p3" d="M 229 624 L 242 653 L 299 630 L 287 606 L 229 624"/>
  <path class="p3" d="M 242 653 L 259 680 L 313 654 L 299 630 L 242 653"/>
  <path class="p3" d="M 287 606 L 299 630 L 355 608 L 346 588 L 287 606"/>
  <path class="p3" d="M 299 630 L 313 654 L 367 627 L 355 608 L 299 630"/>
  <path class="p3" d="M 259 680 L 278 706 L 329 676 L 313 654 L 259 680"/>
  <path class="p3" d="M 278 706 L 299 729 L 347 696 L 329 676 L 278 706"/>
  <path class="p3" d="M 313 654 L 329 676 L 380 645 L 367 627 L 313 654"/>
  <path class="p3" d="M 329 676 L 347 696 L 395 662 L 380 645 L 329 676"/>
  <path class="p3" d="M 328 500 L 329 522 L 391 518 L 390 500 L 328 500"/>
  <path class="p3" d="M 329 522 L 333 545 L 394 535 L 391 518 L 329 522"/>
  <path class="p3" d="M 390 500 L 391 518 L 453 513 L 452 500 L 390 500"/>
  <path class="p3" d="M 391 518 L 394 535 L 455 526 L 453 513 L 391 518"/>
  <path class="p3" d="M 333 545 L 338 567 L 398 553 L 394 535 L 333 545"/>
  <path class="p3" d="M 338 567 L 346 588 L 404 569 L 398 553 L 338 567"/>
  <path class="p3" d="M 394 535 L 398 553 L 458 539 L 455 526 L 394 535"/>
  <path class="p3" d="M 398 553 L 404 569 L 462 551 L 458 539 L 398 553"/>
  <path class="p3" d="M 452 500 L 453 513 L 515 508 L 514 500 L 452 500"/>
  <path class="p3" d="M 453 513 L 455 526 L 516 517 L 515 508 L 453 513"/>
  <path class="p3" d="M 514 500 L 515 508 L 577 504 L 576 500 L 514 500"/>
  <line x1="576" y1="500" x2="577" y2="504"/>
  <path class="p3" d="M 515 508 L 516 517 L 577 507 L 577 504 L 515 508"/>
  <line x1="577" y1="504" x2="577" y2="507"/>
  <path class="p3" d="M 455 526 L 458 539 L 518 525 L 516 517 L 455 526"/>
  <path class="p3" d="M 458 539 L 462 551 L 521 533 L 518 525 L 458 539"/>
  <path class="p3" d="M 516 517 L 518 525 L 578 511 L 577 507 L 516 517"/>
  <line x1="577" y1="507" x2="578" y2="511"/>
  <path class="p3" d="M 518 525 L 521 533 L 579 515 L 578 511 L 518 525"/>
  <line x1="578" y1="511" x2="579" y2="515"/>
  <path class="p3" d="M 346 588 L 355 608 L 412 585 L 404 569 L 346 588"/>
  <path class="p3" d="M 355 608 L 367 627 L 421 601 L 412 585 L 355 608"/>
  <path class="p3" d="M 404 569 L 412 585 L 468 563 L 462 551 L 404 569"/>
  <path class="p3" d="M 412 585 L 421 601 L 475 574 L 468 563 L 412 585"/>
  <path class="p3" d="M 367 627 L 380 645 L 431 615 L 421 601 L 367 627"/>
  <path class="p3" d="M 380 645 L 395 662 L 443 628 L 431 615 L 380 645"/>
  <path class="p3" d="M 421 601 L 431 615 L 483 585 L 475 574 L 421 601"/>
  <path class="p3" d="M 431 615 L 443 628 L 491 594 L 483 585 L 431 615"/>
  <path class="p3" d="M 462 551 L 468 563 L 524 540 L 521 533 L 462 551"/>
  <path class="p3" d="M 468 563 L 475 574 L 529 548 L 524 540 L 468 563"/>
  <path class="p3" d="M 521 533 L 524 540 L 581 518 L 579 515 L 521 533"/>
  <line x1="579" y1="515" x2="581" y2="518"/>
  <path class="p3" d="M 524 540 L 529 548 L 583 521 L 581 518 L 524 540"/>
  <line x1="581" y1="518" x2="583" y2="521"/>
  <path class="p3" d="M 475 574 L 483 585 L 534 555 L 529 548 L 475 574"/>
  <path class="p3" d="M 483 585 L 491 594 L 539 561 L 534 555 L 483 585"/>
  <path class="p3" d="M 529 548 L 534 555 L 585 524 L 583 521 L 529 548"/>
  <line x1="583" y1="521" x2="585" y2="524"/>
  <path class="p3" d="M 534 555 L 539 561 L 588 527 L 585 524 L 534 555"/>
  <line x1="585" y1="524" x2="588" y2="527"/>
  <path class="p3" d="M 203 797 L 234 825 L 278 788 L 251 763 L 203 797"/>
  <line x1="203" y1="797" x2="234" y2="825"/>
  <path class="p3" d="M 234 825 L 267 849 L 307 810 L 278 788 L 234 825"/>
  <line x1="234" y1="825" x2="267" y2="849"/>
  <path class="p3" d="M 251 763 L 278 788 L 323 751 L 299 729 L 251 763"/>
  <path class="p3" d="M 278 788 L 307 810 L 348 770 L 323 751 L 278 788"/>
  <path class="p3" d="M 267 849 L 302 870 L 339 828 L 307 810 L 267 849"/>
  <line x1="267" y1="849" x2="302" y2="870"/>
  <path class="p3" d="M 302 870 L 339 888 L 372 844 L 339 828 L 302 870"/>
  <line x1="302" y1="870" x2="339" y2="888"/>
  <path class="p3" d="M 307 810 L 339 828 L 376 786 L 348 770 L 307 810"/>
  <path class="p3" d="M 339 828 L 372 844 L 404 800 L 376 786 L 339 828"/>
  <path class="p3" d="M 299 729 L 323 751 L 367 714 L 347 696 L 299 729"/>
  <path class="p3" d="M 323 751 L 348 770 L 389 730 L 367 714 L 323 751"/>
  <path class="p3" d="M 347 696 L 367 714 L 412 677 L 395 662 L 347 696"/>
  <path class="p3" d="M 367 714 L 389 730 L 430 690 L 412 677 L 367 714"/>
  <path class="p3" d="M 348 770 L 376 786 L 412 744 L 389 730 L 348 770"/>
  <path class="p3" d="M 376 786 L 404 800 L 437 756 L 412 744 L 376 786"/>
  <path class="p3" d="M 389 730 L 412 744 L 449 702 L 430 690 L 389 730"/>
  <path class="p3" d="M 412 744 L 437 756 L 470 712 L 449 702 L 412 744"/>
  <path class="p3" d="M 339 888 L 378 902 L 406 856 L 372 844 L 339 888"/>
  <line x1="339" y1="888" x2="378" y2="902"/>
  <path class="p3" d="M 378 902 L 418 912 L 442 865 L 406 856 L 378 902"/>
  <line x1="378" y1="902" x2="418" y2="912"/>
  <path class="p3" d="M 372 844 L 406 856 L 434 811 L 404 800 L 372 844"/>
  <path class="p3" d="M 406 856 L 442 865 L 465 818 L 434 811 L 406 856"/>
  <path class="p3" d="M 418 912 L 459 918 L 478 870 L 442 865 L 418 912"/>
  <line x1="418" y1="912" x2="459" y2="918"/>
  <path class="p3" d="M 459 918 L 500 920 L 514 872 L 478 870 L 459 918"/>
  <line x1="459" y1="918" x2="500" y2="920"/>
  <path class="p3" d="M 442 865 L 478 870 L 497 823 L 465 818 L 442 865"/>
  <path class="p3" d="M 478 870 L 514 872 L 529 825 L 497 823 L 478 870"/>
  <path class="p3" d="M 404 800 L 434 811 L 463 765 L 437 756 L 404 800"/>
  <path class="p3" d="M 434 811 L 465 818 L 489 771 L 463 765 L 434 811"/>
  <path class="p3" d="M 437 756 L 463 765 L 491 719 L 470 712 L 437 756"/>
  <path class="p3" d="M 463 765 L 489 771 L 513 725 L 491 719 L 463 765"/>
  <path class="p3" d="M 465 818 L 497 823 L 516 775 L 489 771 L 465 818"/>
  <path class="p3" d="M 497 823 L 529 825 L 543 777 L 516 775 L 497 823"/>
  <path class="p3" d="M 489 771 L 516 775 L 535 728 L 513 725 L 489 771"/>
  <path class="p3" d="M 516 775 L 543 777 L 557 729 L 535 728 L 516 775"/>
  <path class="p3" d="M 395 662 L 412 677 L 457 640 L 443 628 L 395 662"/>
  <path class="p3" d="M 412 677 L 430 690 L 471 651 L 457 640 L 412 677"/>
  <path class="p3" d="M 443 628 L 457 640 L 501 603 L 491 594 L 443 628"/>
  <path class="p3" d="M 457 640 L 471 651 L 512 611 L 501 603 L 457 640"/>
  <path class="p3" d="M 430 690 L 449 702 L 486 660 L 471 651 L 430 690"/>
  <path class="p3" d="M 449 702 L 470 712 L 502 668 L 486 660 L 449 702"/>
  <path class="p3" d="M 471 651 L 486 660 L 523 618 L 512 611 L 471 651"/>
  <path class="p3" d="M 486 660 L 502 668 L 535 623 L 523 618 L 486 660"/>
  <path class="p3" d="M 491 594 L 501 603 L 546 566 L 539 561 L 491 594"/>
  <path class="p3" d="M 501 603 L 512 611 L 552 571 L 546 566 L 501 603"/>
  <path class="p3" d="M 539 561 L 546 566 L 590 530 L 588 527 L 539 561"/>
  <line x1="588" y1="527" x2="590" y2="530"/>
  <path class="p3" d="M 546 566 L 552 571 L 593 532 L 590 530 L 546 566"/>
  <line x1="590" y1="530" x2="593" y2="532"/>
  <path class="p3" d="M 512 611 L 523 618 L 560 576 L 552 571 L 512 611"/>
  <path class="p3" d="M 523 618 L 535 623 L 567 579 L 560 576 L 523 618"/>
  <path class="p3" d="M 552 571 L 560 576 L 597 534 L 593 532 L 552 571"/>
  <line x1="593" y1="532" x2="597" y2="534"/>
  <path class="p3" d="M 560 576 L 567 579 L 600 535 L 597 534 L 560 576"/>
  <line x1="597" y1="534" x2="600" y2="535"/>
  <path class="p3" d="M 470 712 L 491 719 L 519 674 L 502 668 L 470 712"/>
  <path class="p3" d="M 491 719 L 513 725 L 536 678 L 519 674 L 491 719"/>
  <path class="p3" d="M 502 668 L 519 674 L 547 628 L 535 623 L 502 668"/>
  <path class="p3" d="M 519 674 L 536 678 L 560 631 L 547 628 L 519 674"/>
  <path class="p3" d="M 513 725 L 535 728 L 554 680 L 536 678 L 513 725"/>
  <path class="p3" d="M 535 728 L 557 729 L 572 681 L 554 680 L 535 728"/>
  <path class="p3" d="M 536 678 L 554 680 L 573 633 L 560 631 L 536 678"/>
  <path class="p3" d="M 554 680 L 572 681 L 586 634 L 573 633 L 554 680"/>
  <path class="p3" d="M 535 623 L 547 628 L 575 582 L 567 579 L 535 623"/>
  <path class="p3" d="M 547 628 L 560 631 L 583 584 L 575 582 L 547 628"/>
  <path class="p3" d="M 567 579 L 575 582 L 603 537 L 600 535 L 567 579"/>
  <line x1="600" y1="535" x2="603" y2="537"/>
  <path class="p3" d="M 575 582 L 583 584 L 607 537 L 603 537 L 575 582"/>
  <line x1="603" y1="537" x2="607" y2="537"/>
  <path class="p3" d="M 560 631 L 573 633 L 592 585 L 583 584 L 560 631"/>
  <path class="p3" d="M 573 633 L 586 634 L 600 586 L 592 585 L 573 633"/>
  <path class="p3" d="M 583 584 L 592 585 L 611 538 L 607 537 L 583 584"/>
  <line x1="607" y1="537" x2="611" y2="538"/>
  <path class="p3" d="M 592 585 L 600 586 L 615 538 L 611 538 L 592 585"/>
  <line x1="611" y1="538" x2="615" y2="538"/>
  <path class="p3" d="M 500 920 L 541 918 L 551 870 L 514 872 L 500 920"/>
  <line x1="500" y1="920" x2="541" y2="918"/>
  <path class="p3" d="M 541 918 L 582 912 L 587 865 L 551 870 L 541 918"/>
  <line x1="541" y1="918" x2="582" y2="912"/>
  <path class="p3" d="M 514 872 L 551 870 L 560 823 L 529 825 L 514 872"/>
  <path class="p3" d="M 551 870 L 587 865 L 592 818 L 560 823 L 551 870"/>
  <path class="p3" d="M 582 912 L 622 902 L 622 856 L 587 865 L 582 912"/>
  <line x1="582" y1="912" x2="622" y2="902"/>
  <path class="p3" d="M 622 902 L 661 888 L 657 844 L 622 856 L 622 902"/>
  <line x1="622" y1="902" x2="661" y2="888"/>
  <path class="p3" d="M 587 865 L 622 856 L 623 811 L 592 818 L 587 865"/>
  <path class="p3" d="M 622 856 L 657 844 L 653 800 L 623 811 L 622 856"/>
  <path class="p3" d="M 529 825 L 560 823 L 570 775 L 543 777 L 529 825"/>
  <path class="p3" d="M 560 823 L 592 818 L 597 771 L 570 775 L 560 823"/>
  <path class="p3" d="M 543 777 L 570 775 L 580 728 L 557 729 L 543 777"/>
  <path class="p3" d="M 570 775 L 597 771 L 602 725 L 580 728 L 570 775"/>
  <path class="p3" d="M 592 818 L 623 811 L 623 765 L 597 771 L 592 818"/>
  <path class="p3" d="M 623 811 L 653 800 L 649 756 L 623 765 L 623 811"/>
  <path class="p3" d="M 597 771 L 623 765 L 624 719 L 602 725 L 597 771"/>
  <path class="p3" d="M 623 765 L 649 756 L 645 712 L 624 719 L 623 765"/>
  <path class="p3" d="M 661 888 L 698 870 L 690 828 L 657 844 L 661 888"/>
  <line x1="661" y1="888" x2="698" y2="870"/>
  <path class="p3" d="M 698 870 L 733 849 L 721 810 L 690 828 L 698 870"/>
  <line x1="698" y1="870" x2="733" y2="849"/>
  <path class="p3" d="M 657 844 L 690 828 L 682 786 L 653 800 L 657 844"/>
  <path class="p3" d="M 690 828 L 721 810 L 709 770 L 682 786 L 690 828"/>
  <path class="p3" d="M 733 849 L 766 825 L 750 788 L 721 810 L 733 849"/>
  <line x1="733" y1="849" x2="766" y2="825"/>
  <path class="p3" d="M 766 825 L 797 797 L 778 763 L 750 788 L 766 825"/>
  <line x1="766" y1="825" x2="797" y2="797"/>
  <path class="p3" d="M 721 810 L 750 788 L 735 751 L 709 770 L 721 810"/>
  <path class="p3" d="M 750 788 L 778 763 L 758 729 L 735 751 L 750 788"/>
  <path class="p3" d="M 653 800 L 682 786 L 673 744 L 649 756 L 653 800"/>
  <path class="p3" d="M 682 786 L 709 770 L 697 730 L 673 744 L 682 786"/>
  <path class="p3" d="M 649 756 L 673 744 L 665 702 L 645 712 L 649 756"/>
  <path class="p3" d="M 673 744 L 697 730 L 685 690 L 665 702 L 673 744"/>
  <path class="p3" d="M 709 770 L 735 751 L 719 714 L 697 730 L 709 770"/>
  <path class="p3" d="M 735 751 L 758 729 L 739 696 L 719 714 L 735 751"/>
  <path class="p3" d="M 697 730 L 719 714 L 703 677 L 685 690 L 697 730"/>
  <path class="p3" d="M 719 714 L 739 696 L 719 662 L 703 677 L 719 714"/>
  <path class="p3" d="M 557 729 L 580 728 L 589 680 L 572 681 L 557 729"/>
  <path class="p3" d="M 580 728 L 602 725 L 607 678 L 589 680 L 580 728"/>
  <path class="p3" d="M 572 681 L 589 680 L 599 633 L 586 634 L 572 681"/>
  <path class="p3" d="M 589 680 L 607 678 L 612 631 L 599 633 L 589 680"/>
  <path class="p3" d="M 602 725 L 624 719 L 624 674 L 607 678 L 602 725"/>
  <path class="p3" d="M 624 719 L 645 712 L 641 668 L 624 674 L 624 719"/>
  <path class="p3" d="M 607 678 L 624 674 L 625 628 L 612 631 L 607 678"/>
  <path class="p3" d="M 624 674 L 641 668 L 637 623 L 625 628 L 624 674"/>
  <path class="p3" d="M 586 634 L 599 633 L 609 585 L 600 586 L 586 634"/>
  <path class="p3" d="M 599 633 L 612 631 L 617 584 L 609 585 L 599 633"/>
  <path class="p3" d="M 600 586 L 609 585 L 618 538 L 615 538 L 600 586"/>
  <line x1="615" y1="538" x2="618" y2="538"/>
  <path class="p3" d="M 609 585 L 617 584 L 622 537 L 618 538 L 609 585"/>
  <line x1="618" y1="538" x2="622" y2="537"/>
  <path class="p3" d="M 612 631 L 625 628 L 625 582 L 617 584 L 612 631"/>
  <path class="p3" d="M 625 628 L 637 623 L 633 579 L 625 582 L 625 628"/>
  <path class="p3" d="M 617 584 L 625 582 L 626 537 L 622 537 L 617 584"/>
  <line x1="622" y1="537" x2="626" y2="537"/>
  <path class="p3" d="M 625 582 L 633 579 L 629 535 L 626 537 L 625 582"/>
  <line x1="626" y1="537" x2="629" y2="535"/>
  <path class="p3" d="M 645 712 L 665 702 L 657 660 L 641 668 L 645 712"/>
  <path class="p3" d="M 665 702 L 685 690 L 672 651 L 657 660 L 665 702"/>
  <path class="p3" d="M 641 668 L 657 660 L 649 618 L 637 623 L 641 668"/>
  <path class="p3" d="M 657 660 L 672 651 L 660 611 L 649 618 L 657 660"/>
  <path class="p3" d="M 685 690 L 703 677 L 687 640 L 672 651 L 685 690"/>
  <path class="p3" d="M 703 677 L 719 662 L 700 628 L 687 640 L 703 677"/>
  <path class="p3" d="M 672 651 L 687 640 L 671 603 L 660 611 L 672 651"/>
  <path class="p3" d="M 687 640 L 700 628 L 680 594 L 671 603 L 687 640"/>
  <path class="p3" d="M 637 623 L 649 618 L 641 576 L 633 579 L 637 623"/>
  <path class="p3" d="M 649 618 L 660 611 L 648 571 L 641 576 L 649 618"/>
  <path class="p3" d="M 633 579 L 641 576 L 633 534 L 629 535 L 633 579"/>
  <line x1="629" y1="535" x2="633" y2="534"/>
  <path class="p3" d="M 641 576 L 648 571 L 636 532 L 633 534 L 641 576"/>
  <line x1="633" y1="534" x2="636" y2="532"/>
  <path class="p3" d="M 660 611 L 671 603 L 655 566 L 648 571 L 660 611"/>
  <path class="p3" d="M 671 603 L 680 594 L 661 561 L 655 566 L 671 603"/>
  <path class="p3" d="M 648 571 L 655 566 L 639 530 L 636 532 L 648 571"/>
  <line x1="636" y1="532" x2="639" y2="530"/>
  <path class="p3" d="M 655 566 L 661 561 L 642 527 L 639 530 L 655 566"/>
  <line x1="639" y1="530" x2="642" y2="527"/>
  <path class="p3" d="M 797 797 L 825 766 L 802 736 L 778 763 L 797 797"/>
  <line x1="797" y1="797" x2="825" y2="766"/>
  <path class="p3" d="M 825 766 L 849 733 L 824 707 L 802 736 L 825 766"/>
  <line x1="825" y1="766" x2="849" y2="733"/>
  <path class="p3" d="M 778 763 L 802 736 L 780 706 L 758 729 L 778 763"/>
  <path class="p3" d="M 802 736 L 824 707 L 798 680 L 780 706 L 802 736"/>
  <path class="p3" d="M 849 733 L 870 698 L 843 675 L 824 707 L 849 733"/>
  <line x1="849" y1="733" x2="870" y2="698"/>
  <path class="p3" d="M 870 698 L 888 661 L 858 642 L 843 675 L 870 698"/>
  <line x1="870" y1="698" x2="888" y2="661"/>
  <path class="p3" d="M 824 707 L 843 675 L 815 653 L 798 680 L 824 707"/>
  <path class="p3" d="M 843 675 L 858 642 L 828 624 L 815 653 L 843 675"/>
  <path class="p3" d="M 758 729 L 780 706 L 757 676 L 739 696 L 758 729"/>
  <path class="p3" d="M 780 706 L 798 680 L 773 654 L 757 676 L 780 706"/>
  <path class="p3" d="M 739 696 L 757 676 L 734 645 L 719 662 L 739 696"/>
  <path class="p3" d="M 757 676 L 773 654 L 748 627 L 734 645 L 757 676"/>
  <path class="p3" d="M 798 680 L 815 653 L 787 630 L 773 654 L 798 680"/>
  <path class="p3" d="M 815 653 L 828 624 L 799 606 L 787 630 L 815 653"/>
  <path class="p3" d="M 773 654 L 787 630 L 759 608 L 748 627 L 773 654"/>
  <path class="p3" d="M 787 630 L 799 606 L 769 588 L 759 608 L 787 630"/>
  <path class="p3" d="M 888 661 L 902 622 L 871 608 L 858 642 L 888 661"/>
  <line x1="888" y1="661" x2="902" y2="622"/>
  <path class="p3" d="M 902 622 L 912 582 L 879 573 L 871 608 L 902 622"/>
  <line x1="902" y1="622" x2="912" y2="582"/>
  <path class="p3" d="M 858 642 L 871 608 L 839 594 L 828 624 L 858 642"/>
  <path class="p3" d="M 871 608 L 879 573 L 847 563 L 839 594 L 871 608"/>
  <path class="p3" d="M 912 582 L 918 541 L 885 536 L 879 573 L 912 582"/>
  <line x1="912" y1="582" x2="918" y2="541"/>
  <path class="p3" d="M 918 541 L 920 500 L 887 500 L 885 536 L 918 541"/>
  <line x1="918" y1="541" x2="920" y2="500"/>
  <path class="p3" d="M 879 573 L 885 536 L 852 532 L 847 563 L 879 573"/>
  <path class="p3" d="M 885 536 L 887 500 L 853 500 L 852 532 L 885 536"/>
  <path class="p3" d="M 828 624 L 839 594 L 808 580 L 799 606 L 828 624"/>
  <path class="p3" d="M 839 594 L 847 563 L 814 554 L 808 580 L 839 594"/>
  <path class="p3" d="M 799 606 L 808 580 L 776 567 L 769 588 L 799 606"/>
  <path class="p3" d="M 808 580 L 814 554 L 782 545 L 776 567 L 808 580"/>
  <path class="p3" d="M 847 563 L 852 532 L 818 527 L 814 554 L 847 563"/>
  <path class="p3" d="M 852 532 L 853 500 L 820 500 L 818 527 L 852 532"/>
  <path class="p3" d="M 814 554 L 818 527 L 785 522 L 782 545 L 814 554"/>
  <path class="p3" d="M 818 527 L 820 500 L 786 500 L 785 522 L 818 527"/>
  <path class="p3" d="M 719 662 L 734 645 L 712 615 L 700 628 L 719 662"/>
  <path class="p3" d="M 734 645 L 748 627 L 722 601 L 712 615 L 734 645"/>
  <path class="p3" d="M 700 628 L 712 615 L 689 585 L 680 594 L 700 628"/>
  <path class="p3" d="M 712 615 L 722 601 L 697 574 L 689 585 L 712 615"/>
  <path class="p3" d="M 748 627 L 759 608 L 732 585 L 722 601 L 748 627"/>
  <path class="p3" d="M 759 608 L 769 588 L 739 569 L 732 585 L 759 608"/>
  <path class="p3" d="M 722 601 L 732 585 L 704 563 L 697 574 L 722 601"/>
  <path class="p3" d="M 732 585 L 739 569 L 709 551 L 704 563 L 732 585"/>
  <path class="p3" d="M 680 594 L 689 585 L 667 555 L 661 561 L 680 594"/>
  <path class="p3" d="M 689 585 L 697 574 L 672 548 L 667 555 L 689 585"/>
  <path class="p3" d="M 661 561 L 667 555 L 644 524 L 642 527 L 661 561"/>
  <line x1="642" y1="527" x2="644" y2="524"/>
  <path class="p3" d="M 667 555 L 672 548 L 646 521 L 644 524 L 667 555"/>
  <line x1="644" y1="524" x2="646" y2="521"/>
  <path class="p3" d="M 697 574 L 704 563 L 676 540 L 672 548 L 697 574"/>
  <path class="p3" d="M 704 563 L 709 551 L 680 533 L 676 540 L 704 563"/>
  <path class="p3" d="M 672 548 L 676 540 L 648 518 L 646 521 L 672 548"/>
  <line x1="646" y1="521" x2="648" y2="518"/>
  <path class="p3" d="M 676 540 L 680 533 L 650 515 L 648 518 L 676 540"/>
  <line x1="648" y1="518" x2="650" y2="515"/>
  <path class="p3" d="M 769 588 L 776 567 L 745 553 L 739 569 L 769 588"/>
  <path class="p3" d="M 776 567 L 782 545 L 749 535 L 745 553 L 776 567"/>
  <path class="p3" d="M 739 569 L 745 553 L 714 539 L 709 551 L 739 569"/>
  <path class="p3" d="M 745 553 L 749 535 L 717 526 L 714 539 L 745 553"/>
  <path class="p3" d="M 782 545 L 785 522 L 752 518 L 749 535 L 782 545"/>
  <path class="p3" d="M 785 522 L 786 500 L 753 500 L 752 518 L 785 522"/>
  <path class="p3" d="M 749 535 L 752 518 L 719 513 L 717 526 L 749 535"/>
  <path class="p3" d="M 752 518 L 753 500 L 720 500 L 719 513 L 752 518"/>
  <path class="p3" d="M 709 551 L 714 539 L 682 525 L 680 533 L 709 551"/>
  <path class="p3" d="M 714 539 L 717 526 L 684 517 L 682 525 L 714 539"/>
  <path class="p3" d="M 680 533 L 682 525 L 651 511 L 650 515 L 680 533"/>
  <line x1="650" y1="515" x2="651" y2="511"/>
  <path class="p3" d="M 682 525 L 684 517 L 652 507 L 651 511 L 682 525"/>
  <line x1="651" y1="511" x2="652" y2="507"/>
  <path class="p3" d="M 717 526 L 719 513 L 686 508 L 684 517 L 717 526"/>
  <path class="p3" d="M 719 513 L 720 500 L 686 500 L 686 508 L 719 513"/>
  <path class="p3" d="M 684 517 L 686 508 L 653 504 L 652 507 L 684 517"/>
  <line x1="652" y1="507" x2="653" y2="504"/>
  <path class="p3" d="M 686 508 L 686 500 L 653 500 L 653 504 L 686 508"/>
  <line x1="653" y1="504" x2="653" y2="500"/>

</svg>