<svg width="1000" height="1000" xmlns="http://www.w3.org/2000/svg" version="1.1">


<!-- internal style sheet -->
<style type="text/css"><![CDATA[
 rect.background{fill:white}
 rect{fill:none; stroke:rgb(25,25,25); stroke-width:2}
 text{font-family:Helvetica; text-anchor:middle; fill:rgb(25,25,25)}
 line{stroke:rgb(25,25,25); stroke-width:4}
 path{fill:none; stroke:rgb(25,25,25); stroke-width:2}
 circle{fill:white; stroke:black; stroke-width:2}

 path.p0{fill:rgb(0,102,255); stroke:rgb(25,25,25); stroke-width:2}
 path.ps0{fill:rgb(0,77,191); stroke:rgb(20,20,20); stroke-width:2}
 rect.r0{fill:rgb(0,102,255); stroke:rgb(25,25,25); stroke-width:2}
 path.p1{fill:rgb(0,233,255); stroke:rgb(25,25,25); stroke-width:2}
 path.ps1{fill:rgb(0,175,191); stroke:rgb(20,20,20); stroke-width:2}
 rect.r1{fill:rgb(0,233,255); stroke:rgb(25,25,25); stroke-width:2}
 path.p2{fill:rgb(0,255,146); stroke:rgb(25,25,25); stroke-width:2}
 path.ps2{fill:rgb(0,191,110); stroke:rgb(20,20,20); stroke-width:2}
 rect.r2{fill:rgb(0,255,146); stroke:rgb(25,25,25); stroke-width:2}
 path.p3{fill:rgb(0,255,15); stroke:rgb(25,25,25); stroke-width:2}
 path.ps3{fill:rgb(0,191,11); stroke:rgb(20,20,20); stroke-width:2}
 rect.r3{fill:rgb(0,255,15); stroke:rgb(25,25,25); stroke-width:2}
 path.p4{fill:rgb(117,255,0); stroke:rgb(25,25,25); stroke-width:2}
 path.ps4{fill:rgb(88,191,0); stroke:rgb(20,20,20); stroke-width:2}
 rect.r4{fill:rgb(117,255,0); stroke:rgb(25,25,25); stroke-width:2}
 path.p5{fill:rgb(248,255,0); stroke:rgb(25,25,25); stroke-width:2}
 path.ps5{fill:rgb(186,191,0); stroke:rgb(20,20,20); stroke-width:2}
 rect.r5{fill:rgb(248,255,0); stroke:rgb(25,25,25); stroke-width:2}
 path.p6{fill:rgb(255,131,0); stroke:rgb(25,25,25); stroke-width:2}
 path.ps6{fill:rgb(191,98,0); stroke:rgb(20,20,20); stroke-width:2}
 rect.r6{fill:rgb(255,131,0); stroke:rgb(25,25,25); stroke-width:2}
 path.p7{fill:rgb(255,0,0); stroke:rgb(25,25,25); stroke-width:2}
 path.ps7{fill:rgb(191,0,0); stroke:rgb(20,20,20); stroke-width:2}
 rect.r7{fill:rgb(255,0,0); stroke:rgb(25,25,25); stroke-width:2}
]]></style>

 <rect class="background" width="1000" height="1000"/>
  <!-- cells -->
  <path class="p2" d="M 80 920 L 290 920 L 290 710 L 80 710 L 80 920"/>
  <line x1="80" y1="920" x2="80" y2="710"/>
  <line x1="80" y1="920" x2="290" y2="920"/>
  <path class="p2" d="M 290 920 L 500 920 L 500 710 L 290 710 L 290 920"/>
  <line x1="290" y1="920" x2="500" y2="920"/>
  <path class="p2" d="M 80 710 L 290 710 L 290 500 L 80 500 L 80 710"/>
  <line x1="80" y1="710" x2="80" y2="500"/>
  <path class="p2" d="M 500 920 L 710 920 L 710 710 L 500 710 L 500 920"/>
  <line x1="500" y1="920" x2="710" y2="920"/>
  <path class="p2" d="M 710 920 L 920 920 L 920 710 L 710 710 L 710 920"/>
  <line x1="920" y1="920" x2="920" y2="710"/>
  <line x1="710" y1="920" x2="920" y2="920"/>
  <path class="p2" d="M 710 710 L 920 710 L 920 500 L 710 500 L 710 710"/>
  <line x1="920" y1="710" x2="920" y2="500"/>
  <path class="p2" d="M 80 500 L 290 500 L 290 290 L 80 290 L 80 500"/>
  <line x1="80" y1="500" x2="80" y2="290"/>
  <path class="p2" d="M 80 290 L 290 290 L 290 80 L 80 80 L 80 290"/>
  <line x1="80" y1="290" x2="80" y2="80"/>
  <line x1="80" y1="80" x2="290" y2="80"/>
  <path class="p2" d="M 290 290 L 500 290 L 500 80 L 290 80 L 290 290"/>
  <line x1="290" y1="80" x2="500" y2="80"/>
  <path class="p2" d="M 710 500 L 920 500 L 920 290 L 710 290 L 710 500"/>
  <line x1="920" y1="500" x2="920" y2="290"/>
  <path class="p2" d="M 500 290 L 710 290 L 710 80 L 500 80 L 500 290"/>
  <line x1="500" y1="80" x2="710" y2="80"/>
  <path class="p2" d="M 710 290 L 920 290 L 920 80 L 710 80 L 710 290"/>
  <line x1="920" y1="290" x2="920" y2="80"/>
  <line x1="710" y1="80" x2="920" y2="80"/>
  <path class="p3" d="M 290 710 L 395 710 L 395 605 L 290 605 L 290 710"/>
  <path class="p3" d="M 395 710 L 500 710 L 500 605 L 395 605 L 395 710"/>
  <path class="p3" d="M 290 605 L 395 605 L 395 500 L 290 500 L 290 605"/>
  <path class="p3" d="M 500 710 L 605 710 L 605 605 L 500 605 L 500 710"/>
  <path class="p3" d="M 605 710 L 710 710 L 710 605 L 605 605 L 605 710"/>
  <path class="p3" d="M 605 605 L 710 605 L 710 500 L 605 500 L 605 605"/>
  <path class="p3" d="M 290 500 L 395 500 L 395 395 L 290 395 L 290 500"/>
  <path class="p3" d="M 290 395 L 395 395 L 395 290 L 290 290 L 290 395"/>
  <path class="p3" d="M 395 395 L 500 395 L 500 290 L 395 290 L 395 395"/>
  <path class="p3" d="M 605 500 L 710 500 L 710 395 L 605 395 L 605 500"/>
  <path class="p3" d="M 500 395 L 605 395 L 605 290 L 500 290 L 500 395"/>
  <path class="p3" d="M 605 395 L 710 395 L 710 290 L 605 290 L 605 395"/>
  <path class="p4" d="M 395 605 L 448 605 L 448 553 L 395 553 L 395 605"/>
  <path class="p4" d="M 448 605 L 500 605 L 500 553 L 448 553 L 448 605"/>
  <path class="p4" d="M 395 553 L 448 553 L 448 500 L 395 500 L 395 553"/>
  <path class="p4" d="M 500 605 L 553 605 L 553 553 L 500 553 L 500 605"/>
  <path class="p4" d="M 553 605 L 605 605 L 605 553 L 553 553 L 553 605"/>
  <path class="p4" d="M 553 553 L 605 553 L 605 500 L 553 500 L 553 553"/>
  <path class="p4" d="M 395 500 L 448 500 L 448 448 L 395 448 L 395 500"/>
  <path class="p4" d="M 395 448 L 448 448 L 448 395 L 395 395 L 395 448"/>
  <path class="p4" d="M 448 448 L 500 448 L 500 395 L 448 395 L 448 448"/>
  <path class="p4" d="M 553 500 L 605 500 L 605 448 L 553 448 L 553 500"/>
  <path class="p4" d="M 500 448 L 553 448 L 553 395 L 500 395 L 500 448"/>
  <path class="p4" d="M 553 448 L 605 448 L 605 395 L 553 395 L 553 448"/>
  <path class="p5" d="M 448 553 L 474 553 L 474 526 L 448 526 L 448 553"/>
  <path class="p5" d="M 474 553 L 500 553 L 500 526 L 474 526 L 474 553"/>
  <path class="p5" d="M 448 526 L 474 526 L 474 500 L 448 500 L 448 526"/>
  <path class="p5" d="M 500 553 L 526 553 L 526 526 L 500 526 L 500 553"/>
  <path class="p5" d="M 526 553 L 553 553 L 553 526 L 526 526 L 526 553"/>
  <path class="p5" d="M 526 526 L 553 526 L 553 500 L 526 500 L 526 526"/>
  <path class="p5" d="M 448 500 L 474 500 L 474 474 L 448 474 L 448 500"/>
  <path class="p5" d="M 448 474 L 474 474 L 474 448 L 448 448 L 448 474"/>
  <path class="p5" d="M 474 474 L 500 474 L 500 448 L 474 448 L 474 474"/>
  <path class="p5" d="M 526 500 L 553 500 L 553 474 L 526 474 L 526 500"/>
  <path class="p5" d="M 500 474 L 526 474 L 526 448 L 500 448 L 500 474"/>
  <path class="p5" d="M 526 474 L 553 474 L 553 448 L 526 448 L 526 474"/>
  <path class="p6" d="M 474 526 L 487 526 L 487 513 L 474 513 L 474 526"/>
  <path class="p6" d="M 487 526 L 500 526 L 500 513 L 487 513 L 487 526"/>
  <path class="p6" d="M 474 513 L 487 513 L 487 500 L 474 500 L 474 513"/>
  <path class="p6" d="M 500 526 L 513 526 L 513 513 L 500 513 L 500 526"/>
  <path class="p6" d="M 513 526 L 526 526 L 526 513 L 513 513 L 513 526"/>
  <path class="p6" d="M 513 513 L 526 513 L 526 500 L 513 500 L 513 513"/>
  <path class="p6" d="M 474 500 L 487 500 L 487 487 L 474 487 L 474 500"/>
  <path class="p6" d="M 474 487 L 487 487 L 487 474 L 474 474 L 474 487"/>
  <path class="p6" d="M 487 487 L 500 487 L 500 474 L 487 474 L 487 487"/>
  <path class="p6" d="M 513 500 L 526 500 L 526 487 L 513 487 L 513 500"/>
  <path class="p6" d="M 500 487 L 513 487 L 513 474 L 500 474 L 500 487"/>
  <path class="p6" d="M 513 487 L 526 487 L 526 474 L 513 474 L 513 487"/>
  <path class="p7" d="M 487 513 L 493 513 L 493 507 L 487 507 L 487 513"/>
  <path class="p7" d="M 493 513 L 500 513 L 500 507 L 493 507 L 493 513"/>
  <path class="p7" d="M 487 507 L 493 507 L 493 500 L 487 500 L 487 507"/>
  <path class="p7" d="M 493 507 L 500 507 L 500 500 L 493 500 L 493 507"/>
  <path class="p7" d="M 500 513 L 507 513 L 507 507 L 500 507 L 500 513"/>
  <path class="p7" d="M 507 513 L 513 513 L 513 507 L 507 507 L 507 513"/>
  <path class="p7" d="M 500 507 L 507 507 L 507 500 L 500 500 L 500 507"/>
  <path class="p7" d="M 507 507 L 513 507 L 513 500 L 507 500 L 507 507"/>
  <path class="p7" d="M 487 500 L 493 500 L 493 493 L 487 493 L 487 500"/>
  <path class="p7" d="M 493 500 L 500 500 L 500 493 L 493 493 L 493 500"/>
  <path class="p7" d="M 487 493 L 493 493 L 493 487 L 487 487 L 487 493"/>
  <path class="p7" d="M 493 493 L 500 493 L 500 487 L 493 487 L 493 493"/>
  <path class="p7" d="M 500 500 L 507 500 L 507 493 L 500 493 L 500 500"/>
  <path class="p7" d="M 507 500 L 513 500 L 513 493 L 507 493 L 507 500"/>
  <path class="p7" d="M 500 493 L 507 493 L 507 487 L 500 487 L 500 493"/>
  <path class="p7" d="M 507 493 L 513 493 L 513 487 L 507 487 L 507 493"/>

</svg>